Hubballi-Regular-wire.ufo
<glyph name="numbersign" format="1">
  <advance width="596"/>
  <unicode hex="0023"/>
  <outline>
    <contour>
      <point x="481" y="507" type="move"/>
      <point x="305" y="23" type="line"/>
    </contour>
    <contour>
      <point x="281" y="507" type="move"/>
      <point x="105" y="23" type="line"/>
    </contour>
    <contour>
      <point x="532" y="378" type="move"/>
      <point x="128" y="378" type="line"/>
    </contour>
    <contour>
      <point x="463" y="178" type="move"/>
      <point x="59" y="178" type="line"/>
    </contour>
  </outline>
</glyph>
<glyph name="dollar" format="1">
  <advance width="574"/>
  <unicode hex="0024"/>
  <outline>
    <contour>
      <point x="437" y="484" type="move"/>
      <point x="383" y="503"/>
      <point x="344" y="514"/>
      <point x="265" y="514" type="curve" smooth="yes"/>
      <point x="167" y="514"/>
      <point x="109" y="463"/>
      <point x="109" y="410" type="curve" smooth="yes"/>
      <point x="109" y="360"/>
      <point x="135" y="304"/>
      <point x="289" y="278" type="curve" smooth="yes"/>
      <point x="429" y="251"/>
      <point x="476" y="200"/>
      <point x="476" y="136" type="curve" smooth="yes"/>
      <point x="476" y="72"/>
      <point x="419" y="14"/>
      <point x="288" y="14" type="curve" smooth="yes"/>
      <point x="219" y="14"/>
      <point x="154" y="28"/>
      <point x="94" y="57" type="curve"/>
      <point x="94" y="57"/>
    </contour>
    <contour>
      <point x="284" y="606" type="move"/>
      <point x="284" y="-84" type="line"/>
    </contour>
  </outline>
</glyph>
<glyph name="ampersand" format="1">
  <advance width="634"/>
  <unicode hex="0026"/>
  <outline>
    <contour>
      <point x="520" y="277" type="move"/>
      <point x="434" y="155" type="line" smooth="yes"/>
      <point x="360" y="50"/>
      <point x="306" y="15"/>
      <point x="233" y="15" type="curve" smooth="yes"/>
      <point x="150" y="15"/>
      <point x="92" y="66"/>
      <point x="92" y="133" type="curve" smooth="yes"/>
      <point x="92" y="198"/>
      <point x="126" y="249"/>
      <point x="272" y="309" type="curve" smooth="yes"/>
      <point x="335" y="335"/>
      <point x="364" y="372"/>
      <point x="364" y="419" type="curve" smooth="yes"/>
      <point x="364" y="473"/>
      <point x="318" y="515"/>
      <point x="258" y="515" type="curve" smooth="yes"/>
      <point x="199" y="515"/>
      <point x="155" y="475"/>
      <point x="155" y="415" type="curve" smooth="yes"/>
      <point x="155" y="361"/>
      <point x="195" y="320"/>
      <point x="254" y="268" type="curve" smooth="yes"/>
      <point x="535" y="23" type="line"/>
    </contour>
  </outline>
</glyph>
<glyph name="plus" format="1">
  <advance width="530"/>
  <unicode hex="002B"/>
  <outline>
    <contour>
      <point x="96" y="264" type="move"/>
      <point x="433" y="264" type="line"/>
    </contour>
    <contour>
      <point x="265" y="100" type="move"/>
      <point x="265" y="427" type="line"/>
    </contour>
  </outline>
</glyph>
<glyph name="five" format="1">
  <advance width="521"/>
  <unicode hex="0035"/>
  <outline>
    <contour>
      <point x="144" y="508" type="move"/>
      <point x="401" y="508" type="line"/>
    </contour>
    <contour>
      <point x="96" y="54" type="move"/>
      <point x="139" y="34"/>
      <point x="200" y="19"/>
      <point x="266" y="19" type="curve" smooth="yes"/>
      <point x="380" y="19"/>
      <point x="432" y="84"/>
      <point x="432" y="167" type="curve" smooth="yes"/>
      <point x="432" y="245"/>
      <point x="371" y="303"/>
      <point x="270" y="303" type="curve" smooth="yes"/>
      <point x="204" y="303"/>
      <point x="156" y="286"/>
      <point x="124" y="271" type="curve"/>
    </contour>
    <contour>
      <point x="143" y="501" type="move"/>
      <point x="124" y="276" type="line" smooth="yes"/>
    </contour>
  </outline>
</glyph>
<glyph name="nine" format="1">
  <advance width="536"/>
  <unicode hex="0039"/>
  <outline>
    <contour>
      <point x="151" y="33" type="move"/>
      <point x="177" y="26"/>
      <point x="200" y="20"/>
      <point x="233" y="20" type="curve" smooth="yes"/>
      <point x="372" y="20"/>
      <point x="441" y="110"/>
      <point x="441" y="268" type="curve" smooth="yes"/>
      <point x="441" y="426"/>
      <point x="365" y="517"/>
      <point x="251" y="517" type="curve" smooth="yes"/>
      <point x="140" y="517"/>
      <point x="87" y="441"/>
      <point x="87" y="367" type="curve" smooth="yes"/>
      <point x="87" y="274"/>
      <point x="143" y="221"/>
      <point x="242" y="221" type="curve" smooth="yes"/>
      <point x="334" y="221"/>
      <point x="390" y="270"/>
      <point x="434" y="342" type="curve"/>
    </contour>
  </outline>
</glyph>
<glyph name="A" format="1">
  <advance width="580"/>
  <unicode hex="0041"/>
  <outline>
    <contour>
      <point x="281" y="517" type="move"/>
      <point x="213" y="364"/>
      <point x="118" y="149"/>
      <point x="73" y="23" type="curve"/>
    </contour>
    <contour>
      <point x="287" y="517" type="move"/>
      <point x="359" y="363"/>
      <point x="457" y="146"/>
      <point x="505" y="23" type="curve"/>
    </contour>
    <contour>
      <point x="142" y="168" type="move"/>
      <point x="433" y="168" type="line"/>
    </contour>
  </outline>
</glyph>
<glyph name="D" format="1">
  <advance width="612"/>
  <unicode hex="0044"/>
  <outline>
    <contour>
      <point x="299" y="23" type="line" smooth="yes"/>
      <point x="437" y="23"/>
      <point x="526" y="131"/>
      <point x="526" y="266" type="curve" smooth="yes"/>
      <point x="526" y="408"/>
      <point x="419" y="508"/>
      <point x="299" y="508" type="curve" smooth="yes"/>
      <point x="123" y="508" type="line"/>
      <point x="123" y="23" type="line"/>
    </contour>
  </outline>
</glyph>
<glyph name="G" format="1">
  <advance width="618"/>
  <unicode hex="0047"/>
  <outline>
    <contour>
      <point x="481" y="490" type="move"/>
      <point x="439" y="506"/>
      <point x="391" y="517"/>
      <point x="335" y="517" type="curve" smooth="yes"/>
      <point x="191" y="517"/>
      <point x="86" y="415"/>
      <point x="86" y="262" type="curve" smooth="yes"/>
      <point x="86" y="124"/>
      <point x="176" y="14"/>
      <point x="332" y="14" type="curve" smooth="yes"/>
      <point x="409" y="14"/>
      <point x="465" y="34"/>
      <point x="511" y="63" type="curve"/>
      <point x="511" y="63"/>
    </contour>
    <contour>
      <point x="512" y="73" type="move"/>
      <point x="512" y="247" type="line"/>
    </contour>
    <contour>
      <point x="501" y="247" type="move"/>
      <point x="348" y="247" type="line"/>
    </contour>
  </outline>
</glyph>
<glyph name="I" format="1">
  <advance width="256"/>
  <unicode hex="0049"/>
  <outline>
    <contour>
      <point x="128" y="508" type="move"/>
      <point x="128" y="23" type="line"/>
    </contour>
  </outline>
</glyph>
<glyph name="K" format="1">
  <advance width="557"/>
  <unicode hex="004B"/>
  <outline>
    <contour>
      <point x="123" y="508" type="move"/>
      <point x="123" y="23" type="line"/>
    </contour>
    <contour>
      <point x="247" y="301" type="move"/>
      <point x="304" y="232"/>
      <point x="424" y="86"/>
      <point x="479" y="23" type="curve"/>
    </contour>
    <contour>
      <point x="123" y="191" type="move"/>
      <point x="171" y="235"/>
      <point x="359" y="403"/>
      <point x="459" y="508" type="curve"/>
    </contour>
  </outline>
</glyph>
<glyph name="M" format="1">
  <advance width="820"/>
  <unicode hex="004D"/>
  <outline>
    <contour>
      <point x="173" y="517" type="move"/>
      <point x="149" y="374"/>
      <point x="117" y="137"/>
      <point x="105" y="21" type="curve"/>
    </contour>
    <contour>
      <point x="632" y="518" type="move"/>
      <point x="663" y="362"/>
      <point x="696" y="155"/>
      <point x="714" y="21" type="curve"/>
    </contour>
    <contour>
      <point x="185" y="504" type="move"/>
      <point x="247" y="377"/>
      <point x="341" y="180"/>
      <point x="408" y="40" type="curve"/>
    </contour>
    <contour>
      <point x="411" y="52" type="move"/>
      <point x="471" y="188"/>
      <point x="551" y="364"/>
      <point x="625" y="510" type="curve"/>
    </contour>
  </outline>
</glyph>
<glyph name="O" format="1">
  <advance width="640"/>
  <unicode hex="004F"/>
  <outline>
    <contour>
      <point x="322" y="517" type="curve" smooth="yes"/>
      <point x="181" y="517"/>
      <point x="86" y="413"/>
      <point x="86" y="262" type="curve" smooth="yes"/>
      <point x="86" y="124"/>
      <point x="183" y="14"/>
      <point x="322" y="14" type="curve" smooth="yes"/>
      <point x="469" y="14"/>
      <point x="554" y="124"/>
      <point x="554" y="265" type="curve" smooth="yes"/>
      <point x="554" y="413"/>
      <point x="451" y="517"/>
    </contour>
  </outline>
</glyph>
<glyph name="S" format="1">
  <advance width="525"/>
  <unicode hex="0053"/>
  <outline>
    <contour>
      <point x="393" y="484" type="move"/>
      <point x="346" y="503"/>
      <point x="312" y="514"/>
      <point x="243" y="514" type="curve" smooth="yes"/>
      <point x="158" y="514"/>
      <point x="107" y="463"/>
      <point x="107" y="410" type="curve" smooth="yes"/>
      <point x="107" y="360"/>
      <point x="130" y="304"/>
      <point x="264" y="278" type="curve" smooth="yes"/>
      <point x="386" y="251"/>
      <point x="427" y="200"/>
      <point x="427" y="136" type="curve" smooth="yes"/>
      <point x="427" y="72"/>
      <point x="377" y="14"/>
      <point x="263" y="14" type="curve" smooth="yes"/>
      <point x="203" y="14"/>
      <point x="146" y="28"/>
      <point x="94" y="57" type="curve"/>
    </contour>
  </outline>
</glyph>
<glyph name="U" format="1">
  <advance width="616"/>
  <unicode hex="0055"/>
  <outline>
    <contour>
      <point x="111" y="508" type="move"/>
      <point x="111" y="212" type="line" smooth="yes"/>
      <point x="111" y="85"/>
      <point x="191" y="14"/>
      <point x="306" y="14" type="curve" smooth="yes"/>
      <point x="433" y="14"/>
      <point x="505" y="85"/>
      <point x="505" y="215" type="curve" smooth="yes"/>
      <point x="505" y="508" type="line"/>
    </contour>
  </outline>
</glyph>
<glyph name="X" format="1">
  <advance width="563"/>
  <unicode hex="0058"/>
  <outline>
    <contour>
      <point x="98" y="508" type="move"/>
      <point x="194" y="368"/>
      <point x="420" y="107"/>
      <point x="479" y="23" type="curve"/>
    </contour>
    <contour>
      <point x="85" y="23" type="move"/>
      <point x="164" y="130"/>
      <point x="373" y="375"/>
      <point x="459" y="508" type="curve"/>
    </contour>
  </outline>
</glyph>
<glyph name="Y" format="1">
  <advance width="560"/>
  <unicode hex="0059"/>
  <outline>
    <contour>
      <point x="282" y="191" type="move"/>
      <point x="282" y="23" type="line"/>
    </contour>
    <contour>
      <point x="74" y="508" type="move"/>
      <point x="116" y="438"/>
      <point x="236" y="260"/>
      <point x="279" y="203" type="curve"/>
    </contour>
    <contour>
      <point x="282" y="197" type="move"/>
      <point x="331" y="263"/>
      <point x="445" y="439"/>
      <point x="486" y="508" type="curve"/>
    </contour>
  </outline>
</glyph>
<glyph name="underscore" format="1">
  <advance width="495"/>
  <unicode hex="005F"/>
  <outline>
    <contour>
      <point x="40" y="-101" type="move"/>
      <point x="455" y="-101" type="line"/>
    </contour>
  </outline>
</glyph>
<glyph name="grave" format="1">
  <advance width="490"/>
  <unicode hex="0060"/>
  <outline>
    <contour>
      <point x="212" y="596" type="move"/>
      <point x="239" y="561"/>
      <point x="256" y="540"/>
      <point x="281" y="501" type="curve"/>
    </contour>
  </outline>
</glyph>
<glyph name="k" format="1">
  <advance width="469"/>
  <unicode hex="006B"/>
  <outline>
    <contour>
      <point x="110" y="23" type="move"/>
      <point x="110" y="534" type="line"/>
    </contour>
    <contour>
      <point x="234" y="249" type="move"/>
      <point x="395" y="23" type="line"/>
    </contour>
    <contour>
      <point x="382" y="365" type="move"/>
      <point x="112" y="153" type="line"/>
    </contour>
  </outline>
</glyph>
<glyph name="l" format="1">
  <advance width="232"/>
  <unicode hex="006C"/>
  <outline>
    <contour>
      <point x="116" y="23" type="move"/>
      <point x="116" y="534" type="line"/>
    </contour>
  </outline>
</glyph>
<glyph name="p" format="1">
  <advance width="503"/>
  <unicode hex="0070"/>
  <outline>
    <contour>
      <point x="110" y="-168" type="move"/>
      <point x="110" y="365" type="line"/>
    </contour>
    <contour>
      <point x="110" y="87" type="move"/>
      <point x="156" y="49"/>
      <point x="211" y="23"/>
      <point x="265" y="23" type="curve" smooth="yes"/>
      <point x="363" y="23"/>
      <point x="430" y="97"/>
      <point x="430" y="194" type="curve" smooth="yes"/>
      <point x="430" y="305"/>
      <point x="358" y="365"/>
      <point x="277" y="365" type="curve" smooth="yes"/>
      <point x="212" y="365"/>
      <point x="156" y="322"/>
      <point x="111" y="258" type="curve"/>
    </contour>
  </outline>
</glyph>
<glyph name="q" format="1">
  <advance width="505"/>
  <unicode hex="0071"/>
  <outline>
    <contour>
      <point x="395" y="365" type="move"/>
      <point x="395" y="-168" type="line" smooth="yes"/>
    </contour>
    <contour>
      <point x="395" y="324" type="move"/>
      <point x="354" y="350"/>
      <point x="309" y="365"/>
      <point x="251" y="365" type="curve" smooth="yes"/>
      <point x="156" y="365"/>
      <point x="74" y="295"/>
      <point x="74" y="179" type="curve" smooth="yes"/>
      <point x="74" y="81"/>
      <point x="146" y="23"/>
      <point x="222" y="23" type="curve" smooth="yes"/>
      <point x="286" y="23"/>
      <point x="349" y="58"/>
      <point x="394" y="131" type="curve"/>
    </contour>
  </outline>
</glyph>
<glyph name="u" format="1">
  <advance width="497"/>
  <unicode hex="0075"/>
  <outline>
    <contour>
      <point x="387" y="365" type="move"/>
      <point x="387" y="23" type="line"/>
    </contour>
    <contour>
      <point x="100" y="365" type="move"/>
      <point x="100" y="165" type="line" smooth="yes"/>
      <point x="100" y="60"/>
      <point x="148" y="23"/>
      <point x="212" y="23" type="curve" smooth="yes"/>
      <point x="275" y="23"/>
      <point x="341" y="72"/>
      <point x="383" y="130" type="curve"/>
    </contour>
  </outline>
</glyph>
<glyph name="v" format="1">
  <advance width="451"/>
  <unicode hex="0076"/>
  <outline>
    <contour>
      <point x="63" y="365" type="move"/>
      <point x="122" y="212"/>
      <point x="176" y="105"/>
      <point x="229" y="19" type="curve"/>
      <point x="232" y="19" type="line"/>
      <point x="284" y="105"/>
      <point x="349" y="255"/>
      <point x="389" y="365" type="curve"/>
    </contour>
  </outline>
</glyph>
<glyph name="w" format="1">
  <advance width="699"/>
  <unicode hex="0077"/>
  <outline>
    <contour>
      <point x="73" y="364" type="move"/>
      <point x="110" y="231"/>
      <point x="158" y="106"/>
      <point x="199" y="20" type="curve"/>
      <point x="201" y="20" type="line"/>
      <point x="244" y="106"/>
      <point x="312" y="245"/>
      <point x="346" y="354" type="curve"/>
    </contour>
    <contour>
      <point x="353" y="354" type="move"/>
      <point x="400" y="221"/>
      <point x="453" y="105"/>
      <point x="499" y="19" type="curve"/>
      <point x="501" y="19" type="line"/>
      <point x="540" y="105"/>
      <point x="594" y="243"/>
      <point x="627" y="363" type="curve"/>
    </contour>
  </outline>
</glyph>
<glyph name="braceleft" format="1">
  <advance width="412"/>
  <unicode hex="007B"/>
  <outline>
    <contour>
      <point x="310" y="603" type="move"/>
      <point x="290" y="603" type="line" smooth="yes"/>
      <point x="192" y="603"/>
      <point x="132" y="552"/>
      <point x="132" y="495" type="curve" smooth="yes"/>
      <point x="132" y="430"/>
      <point x="199" y="395"/>
      <point x="199" y="337" type="curve" smooth="yes"/>
      <point x="199" y="301"/>
      <point x="165" y="276"/>
      <point x="97" y="266" type="curve"/>
      <point x="97" y="260" type="line"/>
      <point x="165" y="250"/>
      <point x="199" y="225"/>
      <point x="199" y="189" type="curve" smooth="yes"/>
      <point x="199" y="131"/>
      <point x="132" y="96"/>
      <point x="132" y="31" type="curve" smooth="yes"/>
      <point x="132" y="-26"/>
      <point x="192" y="-77"/>
      <point x="290" y="-77" type="curve" smooth="yes"/>
      <point x="310" y="-77" type="line"/>
    </contour>
  </outline>
</glyph>
<glyph name="cent" format="1">
  <advance width="433"/>
  <unicode hex="00A2"/>
  <outline>
    <contour>
      <point x="239" y="507" type="move"/>
      <point x="239" y="23" type="line"/>
    </contour>
    <contour>
      <point x="349" y="412" type="move"/>
      <point x="322" y="420"/>
      <point x="289" y="426"/>
      <point x="260" y="426" type="curve" smooth="yes"/>
      <point x="142" y="426"/>
      <point x="74" y="354"/>
      <point x="74" y="255" type="curve" smooth="yes"/>
      <point x="74" y="168"/>
      <point x="140" y="100"/>
      <point x="259" y="100" type="curve" smooth="yes"/>
      <point x="300" y="100"/>
      <point x="333" y="108"/>
      <point x="361" y="118" type="curve"/>
    </contour>
  </outline>
</glyph>
<glyph name="yen" format="1">
  <advance width="560"/>
  <unicode hex="00A5"/>
  <outline>
    <contour>
      <point x="288" y="265" type="move"/>
      <point x="288" y="23" type="line"/>
    </contour>
    <contour>
      <point x="93" y="508" type="move"/>
      <point x="142" y="438"/>
      <point x="247" y="318"/>
      <point x="285" y="281" type="curve"/>
    </contour>
    <contour>
      <point x="288" y="271" type="move"/>
      <point x="338" y="321"/>
      <point x="430" y="439"/>
      <point x="479" y="508" type="curve"/>
    </contour>
    <contour>
      <point x="113" y="267" type="move"/>
      <point x="461" y="267" type="line"/>
    </contour>
    <contour>
      <point x="113" y="125" type="move"/>
      <point x="461" y="125" type="line"/>
    </contour>
  </outline>
</glyph>
<glyph name="brokenbar" format="1">
  <advance width="300"/>
  <unicode hex="00A6"/>
  <outline>
    <contour>
      <point x="150" y="149" type="move"/>
      <point x="150" y="-78" type="line"/>
    </contour>
    <contour>
      <point x="150" y="535" type="move"/>
      <point x="150" y="308" type="line"/>
    </contour>
  </outline>
</glyph>
<glyph name="ordfeminine" format="1">
  <advance width="444"/>
  <unicode hex="00AA"/>
  <outline>
    <contour>
      <point x="98" y="164" type="move"/>
      <point x="356" y="164" type="line"/>
    </contour>
    <contour>
      <point x="146" y="496" type="move"/>
      <point x="161" y="501"/>
      <point x="186" y="507"/>
      <point x="209" y="507" type="curve" smooth="yes"/>
      <point x="272" y="507"/>
      <point x="301" y="469"/>
      <point x="301" y="414" type="curve" smooth="yes"/>
      <point x="301" y="354" type="line" smooth="yes"/>
      <point x="301" y="318"/>
      <point x="309" y="296"/>
      <point x="325" y="278" type="curve"/>
    </contour>
    <contour>
      <point x="299" y="407" type="move"/>
      <point x="276" y="408"/>
      <point x="256" y="410"/>
      <point x="236" y="410" type="curve" smooth="yes"/>
      <point x="186" y="410"/>
      <point x="154" y="397"/>
      <point x="132" y="378" type="curve" smooth="yes"/>
      <point x="118" y="364"/>
      <point x="114" y="350"/>
      <point x="114" y="332" type="curve" smooth="yes"/>
      <point x="114" y="308"/>
      <point x="132" y="278"/>
      <point x="179" y="278" type="curve" smooth="yes"/>
      <point x="231" y="278"/>
      <point x="268" y="297"/>
      <point x="301" y="342" type="curve"/>
    </contour>
  </outline>
</glyph>
<glyph name="guillemotleft" format="1">
  <advance width="438"/>
  <unicode hex="00AB"/>
  <outline>
    <contour>
      <point x="241" y="189" type="move"/>
      <point x="352" y="39" type="line"/>
    </contour>
    <contour>
      <point x="352" y="344" type="move"/>
      <point x="241" y="194" type="line"/>
    </contour>
    <contour>
      <point x="71" y="189" type="move"/>
      <point x="182" y="39" type="line"/>
    </contour>
    <contour>
      <point x="182" y="344" type="move"/>
      <point x="71" y="194" type="line"/>
    </contour>
  </outline>
</glyph>
<glyph name="registered" format="1">
  <advance width="560"/>
  <unicode hex="00AE"/>
  <outline>
    <contour>
      <point x="235" y="377" type="move"/>
      <point x="282" y="377" type="line" smooth="yes"/>
      <point x="325" y="377"/>
      <point x="345" y="404"/>
      <point x="345" y="436" type="curve" smooth="yes"/>
      <point x="345" y="471"/>
      <point x="320" y="492"/>
      <point x="282" y="492" type="curve" smooth="yes"/>
      <point x="225" y="492" type="line"/>
      <point x="225" y="316" type="line"/>
    </contour>
    <contour>
      <point x="309" y="371" type="move"/>
      <point x="356" y="316" type="line"/>
    </contour>
    <contour>
      <point x="277" y="599" type="curve" smooth="yes"/>
      <point x="398" y="599"/>
      <point x="481" y="515"/>
      <point x="481" y="403" type="curve" smooth="yes"/>
      <point x="481" y="290"/>
      <point x="397" y="206"/>
      <point x="284" y="206" type="curve" smooth="yes"/>
      <point x="163" y="206"/>
      <point x="85" y="298"/>
      <point x="85" y="406" type="curve" smooth="yes"/>
      <point x="85" y="520"/>
      <point x="163" y="599"/>
    </contour>
  </outline>
</glyph>
<glyph name="plusminus" format="1">
  <advance width="530"/>
  <unicode hex="00B1"/>
  <outline>
    <contour>
      <point x="96" y="328" type="move"/>
      <point x="433" y="328" type="line"/>
    </contour>
    <contour>
      <point x="265" y="209" type="move"/>
      <point x="265" y="447" type="line"/>
    </contour>
    <contour>
      <point x="96" y="82" type="move"/>
      <point x="433" y="82" type="line"/>
    </contour>
  </outline>
</glyph>
<glyph name="acute" format="1">
  <advance width="490"/>
  <unicode hex="00B4"/>
  <outline>
    <contour>
      <point x="287" y="597" type="move"/>
      <point x="259" y="566"/>
      <point x="232" y="534"/>
      <point x="206" y="503" type="curve"/>
    </contour>
  </outline>
</glyph>
<glyph name="cedilla" format="1">
  <advance width="490"/>
  <unicode hex="00B8"/>
  <outline>
    <contour>
      <point x="294" y="-83" type="move"/>
      <point x="267" y="-109"/>
      <point x="216" y="-160"/>
      <point x="193" y="-183" type="curve"/>
    </contour>
  </outline>
</glyph>
<glyph name="onequarter" format="1">
  <advance width="714"/>
  <unicode hex="00BC"/>
  <outline>
    <contour>
      <point x="492" y="508" type="move"/>
      <point x="209" y="23" type="line"/>
    </contour>
    <contour>
      <point x="555" y="284" type="move"/>
      <point x="555" y="24" type="line"/>
    </contour>
    <contour>
      <point x="551" y="279" type="move"/>
      <point x="397" y="99" type="line"/>
    </contour>
    <contour>
      <point x="402" y="99" type="move"/>
      <point x="617" y="99" type="line"/>
    </contour>
    <contour>
      <point x="202" y="515" type="move"/>
      <point x="202" y="257" type="line"/>
    </contour>
    <contour>
      <point x="202" y="518" type="move"/>
      <point x="120" y="474" type="line"/>
    </contour>
  </outline>
</glyph>
<glyph name="onehalf" format="1">
  <advance width="780"/>
  <unicode hex="00BD"/>
  <outline>
    <contour>
      <point x="492" y="508" type="move"/>
      <point x="209" y="23" type="line"/>
    </contour>
    <contour>
      <point x="202" y="515" type="move"/>
      <point x="202" y="257" type="line"/>
    </contour>
    <contour>
      <point x="202" y="518" type="move"/>
      <point x="120" y="474" type="line"/>
    </contour>
    <contour>
      <point x="471" y="28" type="move"/>
      <point x="560" y="111" type="line" smooth="yes"/>
      <point x="618" y="166"/>
      <point x="636" y="187"/>
      <point x="636" y="220" type="curve" smooth="yes"/>
      <point x="636" y="250"/>
      <point x="612" y="279"/>
      <point x="561" y="279" type="curve" smooth="yes"/>
      <point x="532" y="279"/>
      <point x="509" y="271"/>
      <point x="484" y="255" type="curve"/>
    </contour>
    <contour>
      <point x="655" y="23" type="move"/>
      <point x="466" y="23" type="line"/>
    </contour>
  </outline>
</glyph>
<glyph name="threequarters" format="1">
  <advance width="826"/>
  <unicode hex="00BE"/>
  <outline>
    <contour>
      <point x="586" y="508" type="move"/>
      <point x="303" y="23" type="line"/>
    </contour>
    <contour>
      <point x="649" y="284" type="move"/>
      <point x="649" y="24" type="line"/>
    </contour>
    <contour>
      <point x="645" y="279" type="move"/>
      <point x="491" y="99" type="line"/>
    </contour>
    <contour>
      <point x="496" y="99" type="move"/>
      <point x="711" y="99" type="line"/>
    </contour>
    <contour>
      <point x="136" y="508" type="move"/>
      <point x="308" y="508" type="line"/>
    </contour>
    <contour>
      <point x="126" y="263" type="move"/>
      <point x="150" y="254"/>
      <point x="181" y="247"/>
      <point x="217" y="247" type="curve" smooth="yes"/>
      <point x="284" y="247"/>
      <point x="317" y="278"/>
      <point x="317" y="319" type="curve" smooth="yes"/>
      <point x="317" y="361"/>
      <point x="282" y="389"/>
      <point x="224" y="389" type="curve" smooth="yes"/>
      <point x="196" y="389"/>
      <point x="174" y="385"/>
      <point x="162" y="381" type="curve"/>
    </contour>
    <contour>
      <point x="303" y="504" type="move"/>
      <point x="164" y="383" type="line" smooth="yes"/>
    </contour>
  </outline>
</glyph>
<glyph name="AE" format="1">
  <advance width="755"/>
  <unicode hex="00C6"/>
  <outline>
    <contour>
      <point x="354" y="508" type="move"/>
      <point x="251" y="339"/>
      <point x="125" y="149"/>
      <point x="43" y="23" type="curve"/>
    </contour>
    <contour>
      <point x="143" y="168" type="move"/>
      <point x="392" y="168" type="line"/>
    </contour>
    <contour>
      <point x="410" y="508" type="move"/>
      <point x="359" y="508" type="line"/>
    </contour>
    <component base="E" xOffset="270"/>
  </outline>
</glyph>
<glyph name="Thorn" format="1">
  <advance width="505"/>
  <unicode hex="00DE"/>
  <outline>
    <contour>
      <point x="123" y="508" type="move"/>
      <point x="123" y="23" type="line"/>
    </contour>
    <contour>
      <point x="149" y="124" type="move"/>
      <point x="260" y="124" type="line" smooth="yes"/>
      <point x="373" y="124"/>
      <point x="428" y="189"/>
      <point x="428" y="267" type="curve" smooth="yes"/>
      <point x="428" y="353"/>
      <point x="361" y="414"/>
      <point x="260" y="414" type="curve" smooth="yes"/>
      <point x="134" y="414" type="line"/>
    </contour>
  </outline>
</glyph>
<glyph name="germandbls" format="1">
  <advance width="509"/>
  <unicode hex="00DF"/>
  <outline>
    <contour>
      <point x="260" y="294" type="move"/>
      <point x="348" y="353"/>
      <point x="364" y="388"/>
      <point x="364" y="444" type="curve" smooth="yes"/>
      <point x="364" y="503"/>
      <point x="324" y="561"/>
      <point x="237" y="560" type="curve" smooth="yes"/>
      <point x="155" y="559"/>
      <point x="116" y="505"/>
      <point x="116" y="434" type="curve" smooth="yes"/>
      <point x="116" y="23" type="line"/>
    </contour>
    <contour>
      <point x="255" y="30" type="move"/>
      <point x="270" y="24"/>
      <point x="295" y="19"/>
      <point x="322" y="19" type="curve" smooth="yes"/>
      <point x="397" y="19"/>
      <point x="438" y="62"/>
      <point x="438" y="123" type="curve" smooth="yes"/>
      <point x="438" y="173"/>
      <point x="409" y="218"/>
      <point x="343" y="250" type="curve" smooth="yes"/>
      <point x="260" y="290" type="line"/>
    </contour>
  </outline>
</glyph>
<glyph name="dcaron" format="1">
  <advance width="631"/>
  <unicode hex="010F"/>
  <outline>
    <contour>
      <point x="586" y="561" type="move"/>
      <point x="566" y="422" type="line"/>
    </contour>
    <component base="d"/>
  </outline>
</glyph>
<glyph name="dotlessi" format="1">
  <advance width="207"/>
  <unicode hex="0131"/>
  <outline>
    <contour>
      <point x="103" y="23" type="move"/>
      <point x="103" y="365" type="line"/>
    </contour>
  </outline>
</glyph>
<glyph name="Lslash" format="1">
  <advance width="474"/>
  <unicode hex="0141"/>
  <outline>
    <contour>
      <point x="277" y="345" type="move"/>
      <point x="62" y="203" type="line"/>
    </contour>
    <component base="L" xOffset="15"/>
  </outline>
</glyph>
<glyph name="OE" format="1">
  <advance width="811"/>
  <unicode hex="0152"/>
  <outline>
    <contour>
      <point x="455" y="508" type="move"/>
      <point x="322" y="508" type="line" smooth="yes"/>
      <point x="181" y="508"/>
      <point x="86" y="408"/>
      <point x="86" y="263" type="curve" smooth="yes"/>
      <point x="86" y="129"/>
      <point x="183" y="23"/>
      <point x="322" y="23" type="curve" smooth="yes"/>
      <point x="484" y="23" type="line"/>
    </contour>
    <component base="E" xOffset="324"/>
  </outline>
</glyph>
<glyph name="caron" format="1">
  <advance width="490"/>
  <unicode hex="02C7"/>
  <outline>
    <contour>
      <point x="154" y="588" type="move"/>
      <point x="180" y="562"/>
      <point x="216" y="525"/>
      <point x="240" y="501" type="curve"/>
    </contour>
    <contour>
      <point x="246" y="501" type="move"/>
      <point x="269" y="524"/>
      <point x="306" y="562"/>
      <point x="332" y="588" type="curve"/>
    </contour>
  </outline>
</glyph>
<glyph name="ring" format="1">
  <advance width="490"/>
  <unicode hex="02DA"/>
  <outline>
    <contour>
      <point x="330" y="546" type="curve" smooth="yes"/>
      <point x="330" y="584"/>
      <point x="300" y="619"/>
      <point x="250" y="619" type="curve" smooth="yes"/>
      <point x="202" y="619"/>
      <point x="172" y="582"/>
      <point x="172" y="546" type="curve" smooth="yes"/>
      <point x="172" y="510"/>
      <point x="202" y="473"/>
      <point x="250" y="473" type="curve" smooth="yes"/>
      <point x="300" y="473"/>
      <point x="330" y="508"/>
    </contour>
  </outline>
</glyph>
<glyph name="ogonek" format="1">
  <advance width="490"/>
  <unicode hex="02DB"/>
  <outline>
    <contour>
      <point x="268" y="19" type="move"/>
      <point x="268" y="-16" type="line"/>
      <point x="182" y="-86"/>
      <point x="165" y="-114"/>
      <point x="165" y="-141" type="curve" smooth="yes"/>
      <point x="165" y="-176"/>
      <point x="205" y="-201"/>
      <point x="283" y="-201" type="curve"/>
    </contour>
  </outline>
</glyph>
<glyph name="tilde" format="1">
  <advance width="490"/>
  <unicode hex="02DC"/>
  <outline>
    <contour>
      <point x="135" y="520" type="move"/>
      <point x="154" y="548"/>
      <point x="175" y="568"/>
      <point x="195" y="568" type="curve" smooth="yes"/>
      <point x="213" y="568"/>
      <point x="225" y="558"/>
      <point x="247" y="541" type="curve" smooth="yes"/>
      <point x="267" y="526"/>
      <point x="282" y="516"/>
      <point x="299" y="516" type="curve" smooth="yes"/>
      <point x="320" y="516"/>
      <point x="336" y="534"/>
      <point x="356" y="564" type="curve"/>
    </contour>
  </outline>
</glyph>
<glyph name="hungarumlaut" format="1">
  <advance width="490"/>
  <unicode hex="02DD"/>
  <outline>
    <contour>
      <point x="185" y="590" type="move"/>
      <point x="163" y="555"/>
      <point x="148" y="525"/>
      <point x="136" y="495" type="curve"/>
    </contour>
    <contour>
      <point x="350" y="590" type="move"/>
      <point x="328" y="555"/>
      <point x="313" y="525"/>
      <point x="301" y="495" type="curve"/>
    </contour>
  </outline>
</glyph>
<glyph name="knCandrabindu" format="1">
  <advance width="0"/>
  <unicode hex="0C81"/>
  <outline>
    <contour>
      <point x="-125" y="689" type="move"/>
      <point x="-102" y="651"/>
      <point x="-61" y="617"/>
      <point x="1" y="617" type="curve" smooth="yes"/>
      <point x="68" y="617"/>
      <point x="98" y="651"/>
      <point x="119" y="685" type="curve"/>
    </contour>
    <contour>
      <point x="-1" y="735" type="curve" smooth="yes"/>
      <point x="10" y="735"/>
      <point x="18" y="743"/>
      <point x="18" y="754" type="curve" smooth="yes"/>
      <point x="18" y="764"/>
      <point x="10" y="773"/>
      <point x="-1" y="773" type="curve" smooth="yes"/>
      <point x="-12" y="773"/>
      <point x="-19" y="764"/>
      <point x="-19" y="754" type="curve" smooth="yes"/>
      <point x="-19" y="743"/>
      <point x="-12" y="735"/>
    </contour>
  </outline>
</glyph>
<glyph name="knAnusvara" format="1">
  <advance width="562"/>
  <unicode hex="0C82"/>
  <outline>
    <contour>
      <point x="175" y="419"/>
      <point x="88" y="325"/>
      <point x="88" y="220" type="curve" smooth="yes"/>
      <point x="88" y="114"/>
      <point x="173" y="19"/>
      <point x="286" y="19" type="curve" smooth="yes"/>
      <point x="398" y="19"/>
      <point x="482" y="115"/>
      <point x="482" y="220" type="curve" smooth="yes"/>
      <point x="482" y="323"/>
      <point x="396" y="419"/>
      <point x="286" y="419" type="curve" smooth="yes"/>
    </contour>
  </outline>
</glyph>
<glyph name="knA" format="1">
  <advance width="773"/>
  <unicode hex="0C85"/>
  <outline>
    <contour>
      <point x="338" y="204" type="move"/>
      <point x="550" y="204" type="line"/>
    </contour>
    <contour>
      <point x="113" y="342" type="move"/>
      <point x="145" y="300"/>
      <point x="184" y="276"/>
      <point x="226" y="276" type="curve" smooth="yes"/>
      <point x="277" y="276"/>
      <point x="316" y="309"/>
      <point x="316" y="359" type="curve" smooth="yes"/>
      <point x="316" y="408"/>
      <point x="282" y="448"/>
      <point x="224" y="448" type="curve" smooth="yes"/>
      <point x="152" y="448"/>
      <point x="95" y="352"/>
      <point x="95" y="249" type="curve" smooth="yes"/>
      <point x="95" y="126"/>
      <point x="193" y="23"/>
      <point x="376" y="23" type="curve" smooth="yes"/>
      <point x="595" y="23"/>
      <point x="683" y="128"/>
      <point x="683" y="259" type="curve" smooth="yes"/>
      <point x="683" y="380"/>
      <point x="616" y="437"/>
      <point x="557" y="437" type="curve" smooth="yes"/>
      <point x="498" y="437"/>
      <point x="466" y="392"/>
      <point x="466" y="343" type="curve" smooth="yes"/>
      <point x="466" y="294"/>
      <point x="497" y="252"/>
      <point x="548" y="206" type="curve"/>
      <point x="548" y="206"/>
    </contour>
  </outline>
</glyph>
<glyph name="knU" format="1">
  <advance width="1052"/>
  <unicode hex="0C89"/>
  <outline>
    <contour>
      <point x="119" y="342" type="move"/>
      <point x="151" y="300"/>
      <point x="190" y="276"/>
      <point x="232" y="276" type="curve" smooth="yes"/>
      <point x="283" y="276"/>
      <point x="322" y="309"/>
      <point x="322" y="359" type="curve" smooth="yes"/>
      <point x="322" y="408"/>
      <point x="288" y="448"/>
      <point x="230" y="448" type="curve" smooth="yes"/>
      <point x="158" y="448"/>
      <point x="100" y="363"/>
      <point x="100" y="236" type="curve" smooth="yes"/>
      <point x="100" y="109"/>
      <point x="175" y="23"/>
      <point x="267" y="23" type="curve"/>
      <point x="304" y="23"/>
      <point x="341" y="37"/>
      <point x="366" y="62" type="curve" smooth="yes"/>
      <point x="393" y="89"/>
      <point x="423" y="142"/>
      <point x="449" y="259" type="curve" smooth="yes"/>
      <point x="472" y="363"/>
      <point x="506" y="411"/>
      <point x="557" y="411" type="curve" smooth="yes"/>
      <point x="620" y="411"/>
      <point x="649" y="359"/>
      <point x="661" y="247" type="curve" smooth="yes"/>
      <point x="674" y="129"/>
      <point x="698" y="87"/>
      <point x="723" y="62" type="curve" smooth="yes"/>
      <point x="747" y="38"/>
      <point x="783" y="23"/>
      <point x="829" y="23" type="curve" smooth="yes"/>
      <point x="897" y="23"/>
      <point x="962" y="74"/>
      <point x="962" y="175" type="curve" smooth="yes"/>
      <point x="962" y="272"/>
      <point x="916" y="359"/>
      <point x="854" y="423" type="curve"/>
    </contour>
  </outline>
</glyph>
<glyph name="knEE" format="1">
  <advance width="730"/>
  <unicode hex="0C8F"/>
  <outline>
    <contour>
      <point x="143" y="473" type="move"/>
      <point x="143" y="400"/>
      <point x="190" y="345"/>
      <point x="261" y="345" type="curve" smooth="yes"/>
      <point x="321" y="345"/>
      <point x="358" y="384"/>
      <point x="379" y="447" type="curve"/>
    </contour>
    <contour>
      <point x="189" y="216" type="move"/>
      <point x="127" y="207"/>
      <point x="93" y="166"/>
      <point x="93" y="118" type="curve" smooth="yes"/>
      <point x="93" y="65"/>
      <point x="136" y="23"/>
      <point x="204" y="23" type="curve" smooth="yes"/>
      <point x="280" y="23"/>
      <point x="324" y="55"/>
      <point x="361" y="124" type="curve"/>
      <point x="366" y="124" type="line"/>
      <point x="407" y="53"/>
      <point x="448" y="23"/>
      <point x="511" y="23" type="curve" smooth="yes"/>
      <point x="582" y="23"/>
      <point x="643" y="74"/>
      <point x="642" y="168" type="curve" smooth="yes"/>
      <point x="641" y="288"/>
      <point x="563" y="410"/>
      <point x="381" y="451" type="curve"/>
    </contour>
  </outline>
</glyph>
<glyph name="knO" format="1">
  <advance width="742"/>
  <unicode hex="0C92"/>
  <outline>
    <contour>
      <point x="92" y="402" type="move"/>
      <point x="117" y="430"/>
      <point x="147" y="448"/>
      <point x="183" y="448" type="curve" smooth="yes"/>
      <point x="235" y="448"/>
      <point x="268" y="414"/>
      <point x="268" y="371" type="curve" smooth="yes"/>
      <point x="268" y="332"/>
      <point x="246" y="299"/>
      <point x="189" y="253" type="curve" smooth="yes"/>
      <point x="141" y="214"/>
      <point x="110" y="173"/>
      <point x="110" y="125" type="curve" smooth="yes"/>
      <point x="110" y="70"/>
      <point x="149" y="23"/>
      <point x="222" y="23" type="curve" smooth="yes"/>
      <point x="289" y="23"/>
      <point x="334" y="52"/>
      <point x="379" y="124" type="curve"/>
      <point x="384" y="124" type="line"/>
      <point x="426" y="59"/>
      <point x="472" y="23"/>
      <point x="545" y="23" type="curve" smooth="yes"/>
      <point x="617" y="23"/>
      <point x="660" y="72"/>
      <point x="660" y="130" type="curve" smooth="yes"/>
      <point x="660" y="173"/>
      <point x="643" y="208"/>
      <point x="615" y="234" type="curve"/>
    </contour>
  </outline>
</glyph>
<glyph name="knKA" format="1">
  <advance width="703"/>
  <unicode hex="0C95"/>
  <outline>
    <contour>
      <point x="98" y="433" type="move"/>
      <point x="480" y="433" type="line" smooth="yes"/>
      <point x="553" y="433"/>
      <point x="596" y="459"/>
      <point x="628" y="511" type="curve"/>
    </contour>
    <contour>
      <point x="94" y="278" type="move"/>
      <point x="607" y="278" type="line" smooth="yes"/>
    </contour>
    <contour>
      <point x="352" y="281" type="move"/>
      <point x="352" y="405" type="line" smooth="yes"/>
    </contour>
    <contour>
      <point x="309" y="276" type="move"/>
      <point x="233" y="264"/>
      <point x="185" y="209"/>
      <point x="185" y="147" type="curve" smooth="yes"/>
      <point x="185" y="83"/>
      <point x="228" y="15"/>
      <point x="351" y="15" type="curve" smooth="yes"/>
      <point x="477" y="15"/>
      <point x="519" y="84"/>
      <point x="519" y="147" type="curve" smooth="yes"/>
      <point x="519" y="209"/>
      <point x="470" y="265"/>
      <point x="394" y="276" type="curve"/>
    </contour>
  </outline>
</glyph>
<glyph name="knGA" format="1">
  <advance width="664"/>
  <unicode hex="0C97"/>
  <outline>
    <contour>
      <point x="92" y="433" type="move"/>
      <point x="453" y="433" type="line" smooth="yes"/>
      <point x="526" y="433"/>
      <point x="569" y="459"/>
      <point x="601" y="511" type="curve"/>
    </contour>
    <contour>
      <point x="503" y="23" type="move"/>
      <point x="525" y="69"/>
      <point x="538" y="114"/>
      <point x="538" y="176" type="curve" smooth="yes"/>
      <point x="538" y="269"/>
      <point x="486" y="375"/>
      <point x="361" y="433" type="curve"/>
    </contour>
    <contour>
      <point x="303" y="433" type="move"/>
      <point x="180" y="376"/>
      <point x="133" y="270"/>
      <point x="133" y="176" type="curve" smooth="yes"/>
      <point x="133" y="115"/>
      <point x="145" y="67"/>
      <point x="168" y="23" type="curve"/>
    </contour>
  </outline>
</glyph>
<glyph name="knGHA" format="1">
  <advance width="827"/>
  <unicode hex="0C98"/>
  <outline>
    <contour>
      <point x="734" y="335" type="move"/>
      <point x="744" y="318"/>
      <point x="749" y="305"/>
      <point x="749" y="278" type="curve" smooth="yes"/>
      <point x="749" y="242"/>
      <point x="717" y="206"/>
      <point x="675" y="206" type="curve" smooth="yes"/>
      <point x="650" y="206"/>
      <point x="628" y="216"/>
      <point x="608" y="231" type="curve"/>
    </contour>
    <contour>
      <point x="384" y="-93" type="move"/>
      <point x="384" y="-196" type="line"/>
    </contour>
    <contour>
      <point x="106" y="433" type="move"/>
      <point x="541" y="433" type="line" smooth="yes"/>
      <point x="614" y="433"/>
      <point x="657" y="459"/>
      <point x="689" y="511" type="curve"/>
    </contour>
    <contour>
      <point x="199" y="216" type="move"/>
      <point x="137" y="207"/>
      <point x="103" y="166"/>
      <point x="103" y="118" type="curve" smooth="yes"/>
      <point x="103" y="65"/>
      <point x="146" y="21"/>
      <point x="222" y="21" type="curve" smooth="yes"/>
      <point x="290" y="21"/>
      <point x="334" y="55"/>
      <point x="381" y="124" type="curve"/>
      <point x="386" y="124" type="line"/>
      <point x="428" y="59"/>
      <point x="474" y="23"/>
      <point x="547" y="23" type="curve"/>
      <point x="619" y="23"/>
      <point x="662" y="72"/>
      <point x="662" y="125" type="curve" smooth="yes"/>
      <point x="662" y="172"/>
      <point x="635" y="211"/>
      <point x="601" y="236" type="curve"/>
    </contour>
    <contour>
      <point x="327" y="430" type="move"/>
      <point x="301" y="406"/>
      <point x="291" y="377"/>
      <point x="291" y="352" type="curve" smooth="yes"/>
      <point x="291" y="309"/>
      <point x="325" y="269"/>
      <point x="383" y="269" type="curve" smooth="yes"/>
      <point x="443" y="269"/>
      <point x="475" y="308"/>
      <point x="475" y="353" type="curve" smooth="yes"/>
      <point x="475" y="378"/>
      <point x="466" y="407"/>
      <point x="439" y="432" type="curve"/>
    </contour>
    <component base="knPha" xOffset="25"/>
  </outline>
</glyph>
<glyph name="knTTA" format="1">
  <advance width="763"/>
  <unicode hex="0C9F"/>
  <outline>
    <contour>
      <point x="531" y="280" type="move"/>
      <point x="617" y="293"/>
      <point x="640" y="337"/>
      <point x="640" y="382" type="curve" smooth="yes"/>
      <point x="640" y="425"/>
      <point x="608" y="460"/>
      <point x="553" y="486" type="curve"/>
    </contour>
    <contour>
      <point x="121" y="234" type="move"/>
      <point x="147" y="195"/>
      <point x="187" y="177"/>
      <point x="225" y="177" type="curve" smooth="yes"/>
      <point x="278" y="177"/>
      <point x="310" y="209"/>
      <point x="310" y="256" type="curve" smooth="yes"/>
      <point x="310" y="302"/>
      <point x="273" y="335"/>
      <point x="223" y="335" type="curve" smooth="yes"/>
      <point x="153" y="335"/>
      <point x="102" y="257"/>
      <point x="102" y="174" type="curve" smooth="yes"/>
      <point x="102" y="83"/>
      <point x="159" y="23"/>
      <point x="238" y="23" type="curve" smooth="yes"/>
      <point x="309" y="23"/>
      <point x="356" y="61"/>
      <point x="388" y="124" type="curve"/>
      <point x="393" y="124" type="line"/>
      <point x="431" y="61"/>
      <point x="480" y="23"/>
      <point x="553" y="23" type="curve" smooth="yes"/>
      <point x="626" y="23"/>
      <point x="669" y="68"/>
      <point x="669" y="137" type="curve" smooth="yes"/>
      <point x="669" y="175"/>
      <point x="658" y="204"/>
      <point x="630" y="232" type="curve" smooth="yes"/>
      <point x="607" y="255"/>
      <point x="557" y="279"/>
      <point x="522" y="279" type="curve"/>
    </contour>
    <contour>
      <point x="226" y="489" type="move"/>
      <point x="174" y="478"/>
      <point x="149" y="445"/>
      <point x="148" y="414" type="curve" smooth="yes"/>
      <point x="147" y="386"/>
      <point x="158" y="349"/>
      <point x="215" y="335" type="curve"/>
    </contour>
  </outline>
</glyph>
<glyph name="knNNA" format="1">
  <advance width="779"/>
  <unicode hex="0CA3"/>
  <outline>
    <contour>
      <point x="233" y="225" type="move"/>
      <point x="168" y="227"/>
      <point x="102" y="187"/>
      <point x="102" y="124" type="curve" smooth="yes"/>
      <point x="102" y="62"/>
      <point x="150" y="24"/>
      <point x="230" y="24" type="curve" smooth="yes"/>
      <point x="259" y="24"/>
      <point x="282" y="28"/>
      <point x="300" y="33" type="curve"/>
    </contour>
    <contour>
      <point x="672" y="143" type="move"/>
      <point x="643" y="174"/>
      <point x="609" y="199"/>
      <point x="557" y="199" type="curve" smooth="yes"/>
      <point x="494" y="199"/>
      <point x="458" y="154"/>
      <point x="458" y="107" type="curve" smooth="yes"/>
      <point x="458" y="55"/>
      <point x="500" y="18"/>
      <point x="552" y="18" type="curve" smooth="yes"/>
      <point x="632" y="18"/>
      <point x="685" y="67"/>
      <point x="685" y="226" type="curve" smooth="yes"/>
      <point x="685" y="376"/>
      <point x="626" y="441"/>
      <point x="544" y="441" type="curve" smooth="yes"/>
      <point x="480" y="441"/>
      <point x="428" y="398"/>
      <point x="392" y="330" type="curve"/>
      <point x="388" y="330" type="line"/>
      <point x="355" y="398"/>
      <point x="304" y="441"/>
      <point x="230" y="441" type="curve" smooth="yes"/>
      <point x="156" y="441"/>
      <point x="114" y="391"/>
      <point x="114" y="336" type="curve" smooth="yes"/>
      <point x="114" y="277"/>
      <point x="165" y="225"/>
      <point x="246" y="225" type="curve" smooth="yes"/>
      <point x="250" y="225"/>
      <point x="252" y="225"/>
      <point x="256" y="225" type="curve"/>
    </contour>
  </outline>
</glyph>
<glyph name="knPA" format="1">
  <advance width="746"/>
  <unicode hex="0CAA"/>
  <outline>
    <contour>
      <point x="106" y="433" type="move"/>
      <point x="521" y="433" type="line" smooth="yes"/>
      <point x="594" y="433"/>
      <point x="637" y="459"/>
      <point x="669" y="511" type="curve"/>
    </contour>
    <contour>
      <point x="386" y="124" type="move"/>
      <point x="428" y="59"/>
      <point x="474" y="23"/>
      <point x="547" y="23" type="curve" smooth="yes"/>
      <point x="619" y="23"/>
      <point x="662" y="72"/>
      <point x="662" y="141" type="curve" smooth="yes"/>
      <point x="662" y="176"/>
      <point x="652" y="210"/>
      <point x="640" y="236" type="curve"/>
    </contour>
    <contour>
      <point x="199" y="216" type="move"/>
      <point x="137" y="207"/>
      <point x="103" y="166"/>
      <point x="103" y="118" type="curve" smooth="yes"/>
      <point x="103" y="65"/>
      <point x="146" y="21"/>
      <point x="222" y="21" type="curve" smooth="yes"/>
      <point x="290" y="21"/>
      <point x="334" y="55"/>
      <point x="381" y="124" type="curve"/>
    </contour>
    <contour>
      <point x="327" y="430" type="move"/>
      <point x="301" y="406"/>
      <point x="291" y="377"/>
      <point x="291" y="352" type="curve" smooth="yes"/>
      <point x="291" y="309"/>
      <point x="325" y="269"/>
      <point x="383" y="269" type="curve" smooth="yes"/>
      <point x="443" y="269"/>
      <point x="475" y="308"/>
      <point x="475" y="353" type="curve" smooth="yes"/>
      <point x="475" y="378"/>
      <point x="466" y="407"/>
      <point x="439" y="432" type="curve"/>
    </contour>
  </outline>
</glyph>
<glyph name="knBHA" format="1">
  <advance width="751"/>
  <unicode hex="0CAD"/>
  <outline>
    <contour>
      <point x="383" y="-93" type="move"/>
      <point x="383" y="-196" type="line"/>
    </contour>
    <contour>
      <point x="439" y="433" type="move"/>
      <point x="528" y="433" type="line" smooth="yes"/>
      <point x="601" y="433"/>
      <point x="644" y="459"/>
      <point x="676" y="511" type="curve"/>
    </contour>
    <contour>
      <point x="92" y="402" type="move"/>
      <point x="117" y="430"/>
      <point x="147" y="448"/>
      <point x="183" y="448" type="curve" smooth="yes"/>
      <point x="235" y="448"/>
      <point x="268" y="414"/>
      <point x="268" y="371" type="curve" smooth="yes"/>
      <point x="268" y="332"/>
      <point x="246" y="299"/>
      <point x="189" y="253" type="curve" smooth="yes"/>
      <point x="141" y="214"/>
      <point x="110" y="173"/>
      <point x="110" y="125" type="curve" smooth="yes"/>
      <point x="110" y="70"/>
      <point x="149" y="23"/>
      <point x="222" y="23" type="curve"/>
      <point x="289" y="23"/>
      <point x="337" y="56"/>
      <point x="379" y="124" type="curve"/>
      <point x="384" y="124" type="line"/>
      <point x="423" y="56"/>
      <point x="470" y="23"/>
      <point x="536" y="23" type="curve" smooth="yes"/>
      <point x="604" y="23"/>
      <point x="657" y="76"/>
      <point x="657" y="168" type="curve"/>
      <point x="657" y="265"/>
      <point x="593" y="369"/>
      <point x="498" y="433" type="curve"/>
    </contour>
  </outline>
</glyph>
<glyph name="knRA" format="1">
  <advance width="663"/>
  <unicode hex="0CB0"/>
  <outline>
    <contour>
      <point x="94" y="433" type="move"/>
      <point x="462" y="433" type="line" smooth="yes"/>
      <point x="535" y="433"/>
      <point x="578" y="459"/>
      <point x="610" y="511" type="curve"/>
    </contour>
    <contour>
      <point x="217" y="433"/>
      <point x="123" y="334"/>
      <point x="123" y="223" type="curve" smooth="yes"/>
      <point x="123" y="106"/>
      <point x="208" y="19"/>
      <point x="337" y="19" type="curve" smooth="yes"/>
      <point x="468" y="19"/>
      <point x="549" y="108"/>
      <point x="549" y="223" type="curve" smooth="yes"/>
      <point x="549" y="332"/>
      <point x="464" y="433"/>
      <point x="339" y="433" type="curve" smooth="yes"/>
    </contour>
  </outline>
</glyph>
<glyph name="knLA" format="1">
  <advance width="717"/>
  <unicode hex="0CB2"/>
  <outline>
    <contour>
      <point x="109" y="332" type="move"/>
      <point x="141" y="300"/>
      <point x="182" y="276"/>
      <point x="224" y="276" type="curve" smooth="yes"/>
      <point x="275" y="276"/>
      <point x="314" y="309"/>
      <point x="314" y="359" type="curve" smooth="yes"/>
      <point x="314" y="408"/>
      <point x="280" y="448"/>
      <point x="222" y="448" type="curve" smooth="yes"/>
      <point x="150" y="448"/>
      <point x="93" y="352"/>
      <point x="93" y="249" type="curve" smooth="yes"/>
      <point x="93" y="126"/>
      <point x="189" y="23"/>
      <point x="369" y="23" type="curve" smooth="yes"/>
      <point x="557" y="23"/>
      <point x="627" y="137"/>
      <point x="627" y="245" type="curve" smooth="yes"/>
      <point x="627" y="311"/>
      <point x="594" y="385"/>
      <point x="549" y="433" type="curve"/>
    </contour>
  </outline>
</glyph>
<glyph name="knSSA" format="1">
  <advance width="750"/>
  <unicode hex="0CB7"/>
  <outline>
    <contour>
      <point x="513" y="190" type="move"/>
      <point x="661" y="-33" type="line"/>
    </contour>
    <component base="knPa" xOffset="15"/>
    <component base="knPA"/>
  </outline>
</glyph>
<glyph name="knSA" format="1">
  <advance width="688"/>
  <unicode hex="0CB8"/>
  <outline>
    <contour>
      <point x="93" y="433" type="move"/>
      <point x="474" y="433" type="line" smooth="yes"/>
      <point x="547" y="433"/>
      <point x="590" y="459"/>
      <point x="622" y="511" type="curve"/>
    </contour>
    <contour>
      <point x="118" y="13" type="move"/>
      <point x="118" y="83"/>
      <point x="134" y="131"/>
      <point x="160" y="157" type="curve" smooth="yes"/>
      <point x="176" y="173"/>
      <point x="200" y="185"/>
      <point x="229" y="185" type="curve" smooth="yes"/>
      <point x="266" y="185"/>
      <point x="309" y="166"/>
      <point x="347" y="114" type="curve" smooth="yes"/>
      <point x="386" y="61"/>
      <point x="416" y="23"/>
      <point x="476" y="23" type="curve" smooth="yes"/>
      <point x="540" y="23"/>
      <point x="591" y="67"/>
      <point x="591" y="168" type="curve" smooth="yes"/>
      <point x="591" y="196"/>
      <point x="585" y="234"/>
      <point x="576" y="263" type="curve"/>
    </contour>
    <contour>
      <point x="297" y="430" type="move"/>
      <point x="271" y="406"/>
      <point x="261" y="377"/>
      <point x="261" y="352" type="curve" smooth="yes"/>
      <point x="261" y="309"/>
      <point x="295" y="269"/>
      <point x="353" y="269" type="curve" smooth="yes"/>
      <point x="413" y="269"/>
      <point x="445" y="308"/>
      <point x="445" y="353" type="curve" smooth="yes"/>
      <point x="445" y="378"/>
      <point x="436" y="407"/>
      <point x="409" y="432" type="curve"/>
    </contour>
  </outline>
</glyph>
<glyph name="knsignI" format="1">
  <advance width="0"/>
  <unicode hex="0CBF"/>
  <outline>
    <contour>
      <point x="-358" y="306" type="move"/>
      <point x="-240" y="306"/>
      <point x="-175" y="376"/>
      <point x="-175" y="469" type="curve" smooth="yes"/>
      <point x="-175" y="540"/>
      <point x="-227" y="611"/>
      <point x="-297" y="611" type="curve" smooth="yes"/>
      <point x="-353" y="611"/>
      <point x="-388" y="571"/>
      <point x="-388" y="526" type="curve" smooth="yes"/>
      <point x="-388" y="480"/>
      <point x="-351" y="446"/>
      <point x="-303" y="446" type="curve" smooth="yes"/>
      <point x="-257" y="446"/>
      <point x="-222" y="466"/>
      <point x="-185" y="514" type="curve"/>
    </contour>
  </outline>
</glyph>
<glyph name="knsignAU" format="1">
  <advance width="332"/>
  <unicode hex="0CCC"/>
  <outline>
    <contour>
      <point x="-231" y="604" type="move"/>
      <point x="-7" y="604" type="line" smooth="yes"/>
      <point x="139" y="604"/>
      <point x="244" y="530"/>
      <point x="244" y="367" type="curve"/>
      <point x="244" y="278"/>
      <point x="197" y="224"/>
      <point x="134" y="224" type="curve" smooth="yes"/>
      <point x="80" y="224"/>
      <point x="45" y="262"/>
      <point x="45" y="308" type="curve" smooth="yes"/>
      <point x="45" y="362"/>
      <point x="81" y="408"/>
      <point x="155" y="408" type="curve" smooth="yes"/>
      <point x="184" y="408"/>
      <point x="214" y="401"/>
      <point x="239" y="393" type="curve"/>
    </contour>
    <contour>
      <point x="-195" y="433" type="move"/>
      <point x="-96" y="433"/>
      <point x="-35" y="489"/>
      <point x="-35" y="599" type="curve"/>
    </contour>
  </outline>
</glyph>
<glyph name="knLengthmark" format="1">
  <advance width="355"/>
  <unicode hex="0CD5"/>
  <outline>
    <contour>
      <point x="91" y="321" type="move"/>
      <point x="121" y="294"/>
      <point x="160" y="276"/>
      <point x="198" y="276" type="curve" smooth="yes"/>
      <point x="252" y="276"/>
      <point x="287" y="312"/>
      <point x="287" y="362" type="curve" smooth="yes"/>
      <point x="287" y="408"/>
      <point x="253" y="448"/>
      <point x="198" y="448" type="curve" smooth="yes"/>
      <point x="125" y="448"/>
      <point x="78" y="372"/>
      <point x="78" y="256" type="curve" smooth="yes"/>
      <point x="78" y="145"/>
      <point x="147" y="56"/>
      <point x="258" y="23" type="curve"/>
    </contour>
  </outline>
</glyph>
<glyph name="knvRR" format="1">
  <advance width="1372"/>
  <unicode hex="0CE0"/>
  <outline>
    <contour>
      <point x="489" y="433" type="move"/>
      <point x="571" y="433" type="line" smooth="yes"/>
      <point x="644" y="433"/>
      <point x="687" y="459"/>
      <point x="719" y="511" type="curve"/>
    </contour>
    <component base="knKHA"/>
    <component base="knsignUU" xOffset="765"/>
  </outline>
</glyph>
<glyph name="knsignvL" format="1">
  <advance width="0"/>
  <unicode hex="0CE2"/>
  <outline>
    <contour>
      <point x="-244" y="-220" type="move"/>
      <point x="-255" y="-206"/>
      <point x="-261" y="-195"/>
      <point x="-261" y="-178" type="curve" smooth="yes"/>
      <point x="-261" y="-148"/>
      <point x="-237" y="-121"/>
      <point x="-192" y="-121" type="curve" smooth="yes"/>
      <point x="-145" y="-121"/>
      <point x="-113" y="-145"/>
      <point x="-87" y="-182" type="curve"/>
      <point x="-83" y="-182" type="line"/>
      <point x="-56" y="-145"/>
      <point x="-22" y="-121"/>
      <point x="22" y="-121" type="curve" smooth="yes"/>
      <point x="66" y="-121"/>
      <point x="94" y="-146"/>
      <point x="94" y="-177" type="curve" smooth="yes"/>
      <point x="94" y="-194"/>
      <point x="83" y="-210"/>
      <point x="69" y="-222" type="curve" smooth="yes"/>
      <point x="61" y="-230"/>
      <point x="40" y="-242"/>
      <point x="12" y="-256" type="curve" smooth="yes"/>
      <point x="-23" y="-274"/>
      <point x="-34" y="-286"/>
      <point x="-34" y="-306" type="curve" smooth="yes"/>
      <point x="-34" y="-316"/>
      <point x="-29" y="-327"/>
      <point x="-20" y="-334" type="curve"/>
      <point x="-7" y="-346"/>
      <point x="19" y="-356"/>
      <point x="75" y="-356" type="curve" smooth="yes"/>
      <point x="124" y="-356"/>
      <point x="158" y="-343"/>
      <point x="178" y="-326" type="curve" smooth="yes"/>
      <point x="200" y="-308"/>
      <point x="211" y="-277"/>
      <point x="211" y="-250" type="curve" smooth="yes"/>
      <point x="211" y="-206"/>
      <point x="199" y="-162"/>
      <point x="182" y="-121" type="curve"/>
    </contour>
  </outline>
</glyph>
<glyph name="knZero" format="1">
  <advance width="577"/>
  <unicode hex="0CE6"/>
  <outline>
    <contour>
      <point x="290" y="448" type="curve" smooth="yes"/>
      <point x="172" y="448"/>
      <point x="90" y="358"/>
      <point x="90" y="231" type="curve" smooth="yes"/>
      <point x="90" y="114"/>
      <point x="174" y="16"/>
      <point x="290" y="16" type="curve" smooth="yes"/>
      <point x="416" y="16"/>
      <point x="487" y="114"/>
      <point x="487" y="233" type="curve" smooth="yes"/>
      <point x="487" y="358"/>
      <point x="399" y="448"/>
    </contour>
  </outline>
</glyph>
<glyph name="knOne" format="1">
  <advance width="573"/>
  <unicode hex="0CE7"/>
  <outline>
    <contour>
      <point x="412" y="26" type="move"/>
      <point x="453" y="82"/>
      <point x="483" y="151"/>
      <point x="483" y="233" type="curve" smooth="yes"/>
      <point x="483" y="359"/>
      <point x="397" y="448"/>
      <point x="288" y="448" type="curve" smooth="yes"/>
      <point x="170" y="448"/>
      <point x="90" y="359"/>
      <point x="90" y="232" type="curve" smooth="yes"/>
      <point x="90" y="150"/>
      <point x="126" y="82"/>
      <point x="169" y="25" type="curve"/>
    </contour>
  </outline>
</glyph>
<glyph name="knTwo" format="1">
  <advance width="544"/>
  <unicode hex="0CE8"/>
  <outline>
    <contour>
      <point x="70" y="23" type="move"/>
      <point x="194" y="23" type="line" smooth="yes"/>
      <point x="352" y="23"/>
      <point x="454" y="115"/>
      <point x="454" y="249" type="curve" smooth="yes"/>
      <point x="454" y="384"/>
      <point x="368" y="448"/>
      <point x="287" y="448" type="curve" smooth="yes"/>
      <point x="220" y="448"/>
      <point x="184" y="403"/>
      <point x="184" y="353" type="curve" smooth="yes"/>
      <point x="184" y="301"/>
      <point x="228" y="266"/>
      <point x="287" y="266" type="curve" smooth="yes"/>
      <point x="346" y="266"/>
      <point x="391" y="296"/>
      <point x="423" y="354" type="curve"/>
    </contour>
  </outline>
</glyph>
<glyph name="emdash" format="1">
  <advance width="763"/>
  <unicode hex="2014"/>
  <outline>
    <contour>
      <point x="109" y="218" type="move"/>
      <point x="654" y="218" type="line"/>
    </contour>
  </outline>
</glyph>
<glyph name="quoteright" format="1">
  <advance width="245"/>
  <unicode hex="2019"/>
  <outline>
    <contour>
      <point x="124" y="568" type="move"/>
      <point x="128" y="556"/>
      <point x="130" y="538"/>
      <point x="130" y="519" type="curve" smooth="yes"/>
      <point x="130" y="473"/>
      <point x="115" y="427"/>
      <point x="89" y="392" type="curve"/>
    </contour>
  </outline>
</glyph>
<glyph name="quotedblleft" format="1">
  <advance width="406"/>
  <unicode hex="201C"/>
  <outline>
    <contour>
      <point x="157" y="392" type="move" smooth="yes"/>
      <point x="131" y="426"/>
      <point x="115" y="471"/>
      <point x="115" y="510" type="curve" smooth="yes"/>
      <point x="115" y="534"/>
      <point x="117" y="551"/>
      <point x="121" y="567" type="curve"/>
    </contour>
    <contour>
      <point x="317" y="392" type="move" smooth="yes"/>
      <point x="291" y="426"/>
      <point x="275" y="471"/>
      <point x="275" y="510" type="curve" smooth="yes"/>
      <point x="275" y="534"/>
      <point x="277" y="551"/>
      <point x="281" y="567" type="curve"/>
    </contour>
  </outline>
</glyph>
<glyph name="bullet" format="1">
  <advance width="521"/>
  <unicode hex="2022"/>
  <outline>
    <contour>
      <point x="260" y="340" type="curve" smooth="yes"/>
      <point x="198" y="340"/>
      <point x="155" y="288"/>
      <point x="155" y="237" type="curve" smooth="yes"/>
      <point x="155" y="179"/>
      <point x="201" y="134"/>
      <point x="260" y="134" type="curve" smooth="yes"/>
      <point x="322" y="134"/>
      <point x="365" y="180"/>
      <point x="365" y="236" type="curve" smooth="yes"/>
      <point x="365" y="288"/>
      <point x="326" y="340"/>
    </contour>
    <contour>
      <point x="261" y="281" type="curve" smooth="yes"/>
      <point x="235" y="281"/>
      <point x="216" y="260"/>
      <point x="216" y="239" type="curve" smooth="yes"/>
      <point x="216" y="213"/>
      <point x="236" y="194"/>
      <point x="261" y="194" type="curve" smooth="yes"/>
      <point x="286" y="194"/>
      <point x="305" y="213"/>
      <point x="305" y="237" type="curve" smooth="yes"/>
      <point x="305" y="260"/>
      <point x="290" y="281"/>
    </contour>
  </outline>
</glyph>
<glyph name="fraction" format="1">
  <advance width="454"/>
  <unicode hex="2044"/>
  <outline>
    <contour>
      <point x="371" y="508" type="move"/>
      <point x="88" y="23" type="line"/>
    </contour>
  </outline>
</glyph>
<glyph name="trademark" format="1">
  <advance width="758"/>
  <unicode hex="2122"/>
  <outline>
    <contour>
      <point x="165" y="533" type="move"/>
      <point x="165" y="292" type="line"/>
    </contour>
    <contour>
      <point x="60" y="533" type="move"/>
      <point x="272" y="533" type="line"/>
    </contour>
    <contour>
      <point x="405" y="537" type="move"/>
      <point x="393" y="466"/>
      <point x="377" y="349"/>
      <point x="371" y="291" type="curve"/>
    </contour>
    <contour>
      <point x="640" y="538" type="move"/>
      <point x="656" y="460"/>
      <point x="668" y="358"/>
      <point x="677" y="291" type="curve"/>
    </contour>
    <contour>
      <point x="415" y="531" type="move"/>
      <point x="445" y="468"/>
      <point x="492" y="370"/>
      <point x="525" y="301" type="curve"/>
    </contour>
    <contour>
      <point x="527" y="307" type="move"/>
      <point x="556" y="374"/>
      <point x="596" y="461"/>
      <point x="633" y="534" type="curve"/>
    </contour>
  </outline>
</glyph>
<glyph name="partialdiff" format="1">
  <advance width="566"/>
  <unicode hex="2202"/>
  <outline>
    <contour>
      <point x="218" y="467" type="move"/>
      <point x="246" y="494"/>
      <point x="285" y="512"/>
      <point x="322" y="512" type="curve" smooth="yes"/>
      <point x="354" y="512"/>
      <point x="386" y="499"/>
      <point x="409" y="476" type="curve" smooth="yes"/>
      <point x="440" y="445"/>
      <point x="454" y="377"/>
      <point x="454" y="309" type="curve" smooth="yes"/>
      <point x="454" y="211"/>
      <point x="421" y="112"/>
      <point x="380" y="71" type="curve" smooth="yes"/>
      <point x="347" y="38"/>
      <point x="305" y="20"/>
      <point x="262" y="20" type="curve" smooth="yes"/>
      <point x="181" y="20"/>
      <point x="125" y="78"/>
      <point x="125" y="149" type="curve" smooth="yes"/>
      <point x="125" y="235"/>
      <point x="191" y="307"/>
      <point x="307" y="307" type="curve" smooth="yes"/>
      <point x="345" y="307"/>
      <point x="392" y="300"/>
      <point x="441" y="289" type="curve"/>
    </contour>
  </outline>
</glyph>
<glyph name="product" format="1">
  <advance width="580"/>
  <unicode hex="220F"/>
  <outline>
    <contour>
      <point x="453" y="23" type="move"/>
      <point x="453" y="508" type="line"/>
      <point x="123" y="508" type="line"/>
      <point x="123" y="23" type="line"/>
    </contour>
  </outline>
</glyph>
<glyph name="summation" format="1">
  <advance width="485"/>
  <unicode hex="2211"/>
  <outline>
    <contour>
      <point x="260" y="264" type="move"/>
      <point x="63" y="23" type="line"/>
    </contour>
    <contour>
      <point x="71" y="23" type="move"/>
      <point x="402" y="23" type="line"/>
    </contour>
    <contour>
      <point x="81" y="508" type="move"/>
      <point x="397" y="508" type="line"/>
    </contour>
    <contour>
      <point x="74" y="508" type="move"/>
      <point x="261" y="271" type="line"/>
    </contour>
  </outline>
</glyph>
<glyph name="integral" format="1">
  <advance width="318"/>
  <unicode hex="222B"/>
  <outline>
    <contour>
      <point x="270" y="560" type="move"/>
      <point x="166" y="554"/>
      <point x="134" y="508"/>
      <point x="134" y="438" type="curve" smooth="yes"/>
      <point x="134" y="23" type="line"/>
    </contour>
    <contour>
      <point x="-2" y="-157" type="move"/>
      <point x="102" y="-151"/>
      <point x="134" y="-105"/>
      <point x="134" y="-35" type="curve" smooth="yes"/>
      <point x="134" y="380" type="line"/>
    </contour>
  </outline>
</glyph>
<glyph name="approxequal" format="1">
  <advance width="530"/>
  <unicode hex="2248"/>
  <outline>
    <contour>
      <point x="69" y="322" type="move"/>
      <point x="104" y="377"/>
      <point x="138" y="404"/>
      <point x="177" y="404" type="curve" smooth="yes"/>
      <point x="213" y="404"/>
      <point x="237" y="387"/>
      <point x="266" y="361" type="curve" smooth="yes"/>
      <point x="298" y="334"/>
      <point x="324" y="315"/>
      <point x="357" y="315" type="curve" smooth="yes"/>
      <point x="401" y="315"/>
      <point x="433" y="343"/>
      <point x="472" y="401" type="curve"/>
    </contour>
    <contour>
      <point x="69" y="121" type="move"/>
      <point x="104" y="176"/>
      <point x="134" y="207"/>
      <point x="177" y="207" type="curve" smooth="yes"/>
      <point x="208" y="207"/>
      <point x="236" y="185"/>
      <point x="266" y="162" type="curve" smooth="yes"/>
      <point x="299" y="136"/>
      <point x="324" y="117"/>
      <point x="358" y="117" type="curve" smooth="yes"/>
      <point x="401" y="117"/>
      <point x="433" y="142"/>
      <point x="472" y="201" type="curve"/>
    </contour>
  </outline>
</glyph>
<glyph name="notequal" format="1">
  <advance width="530"/>
  <unicode hex="2260"/>
  <outline>
    <contour>
      <point x="353" y="488" type="move"/>
      <point x="183" y="33" type="line"/>
    </contour>
    <component base="equal"/>
  </outline>
</glyph>
<glyph name="dottedcircle" format="1">
  <advance width="660"/>
  <unicode hex="25CC"/>
  <outline>
    <contour>
      <point x="301" y="565" type="move"/>
      <point x="301" y="547" type="line"/>
    </contour>
    <contour>
      <point x="181" y="521" type="move"/>
      <point x="181" y="503" type="line"/>
    </contour>
    <contour>
      <point x="102" y="412" type="move"/>
      <point x="102" y="394" type="line"/>
    </contour>
    <contour>
      <point x="87" y="288" type="move"/>
      <point x="87" y="270" type="line"/>
    </contour>
    <contour>
      <point x="140" y="171" type="move"/>
      <point x="140" y="153" type="line"/>
    </contour>
    <contour>
      <point x="87" y="288" type="move"/>
      <point x="87" y="270" type="line"/>
    </contour>
    <contour>
      <point x="367" y="61" type="move"/>
      <point x="367" y="79" type="line"/>
    </contour>
    <contour>
      <point x="489" y="115" type="move"/>
      <point x="489" y="133" type="line"/>
    </contour>
    <contour>
      <point x="560" y="214" type="move"/>
      <point x="560" y="232" type="line"/>
    </contour>
    <contour>
      <point x="572" y="348" type="move"/>
      <point x="572" y="366" type="line"/>
    </contour>
    <contour>
      <point x="522" y="465" type="move"/>
      <point x="522" y="483" type="line"/>
    </contour>
    <contour>
      <point x="572" y="348" type="move"/>
      <point x="572" y="366" type="line"/>
    </contour>
    <contour>
      <point x="243" y="77" type="move"/>
      <point x="243" y="95" type="line"/>
    </contour>
    <contour>
      <point x="427" y="534" type="move"/>
      <point x="427" y="552" type="line"/>
    </contour>
  </outline>
</glyph>
<glyph name="caroncmb.cap" format="1">
  <advance width="0"/>
  <outline>
    <contour>
      <point x="-1" y="654" type="move"/>
      <point x="32" y="678"/>
      <point x="67" y="702"/>
      <point x="95" y="723" type="curve"/>
    </contour>
    <contour>
      <point x="-104" y="723" type="move"/>
      <point x="-76" y="702"/>
      <point x="-42" y="678"/>
      <point x="-8" y="654" type="curve"/>
    </contour>
  </outline>
</glyph>
<glyph name="circumflexcmb.cap" format="1">
  <advance width="0"/>
  <outline>
    <contour>
      <point x="-8" y="723" type="move"/>
      <point x="-41" y="699"/>
      <point x="-76" y="675"/>
      <point x="-104" y="654" type="curve"/>
    </contour>
    <contour>
      <point x="95" y="654" type="move"/>
      <point x="67" y="675"/>
      <point x="33" y="699"/>
      <point x="-1" y="723" type="curve"/>
    </contour>
  </outline>
</glyph>
<glyph name="commaaccent" format="1">
  <advance width="230"/>
  <outline>
    <contour>
      <point x="131" y="-104" type="move"/>
      <point x="137" y="-115"/>
      <point x="140" y="-128"/>
      <point x="140" y="-141" type="curve" smooth="yes"/>
      <point x="140" y="-179"/>
      <point x="110" y="-213"/>
      <point x="63" y="-235" type="curve"/>
    </contour>
  </outline>
</glyph>
<glyph name="ethslash" format="1">
  <advance width="490"/>
  <outline>
    <contour>
      <point x="185" y="431" type="move"/>
      <point x="349" y="530" type="line"/>
    </contour>
  </outline>
</glyph>
<glyph name="gravecmb.cap" format="1">
  <advance width="0"/>
  <outline>
    <contour>
      <point x="-110" y="726" type="move"/>
      <point x="-74" y="706"/>
      <point x="-21" y="666"/>
      <point x="6" y="645" type="curve"/>
    </contour>
  </outline>
</glyph>
<glyph name="knCHA.base" format="1">
  <advance width="768"/>
  <outline>
    <contour>
      <point x="470" y="433" type="move"/>
      <point x="574" y="433" type="line" smooth="yes"/>
    </contour>
    <contour>
      <point x="406" y="-93" type="move"/>
      <point x="406" y="-196" type="line"/>
    </contour>
    <contour>
      <point x="130" y="350" type="move"/>
      <point x="158" y="308"/>
      <point x="192" y="282"/>
      <point x="234" y="282" type="curve" smooth="yes"/>
      <point x="282" y="282"/>
      <point x="322" y="314"/>
      <point x="322" y="364" type="curve" smooth="yes"/>
      <point x="322" y="413"/>
      <point x="289" y="448"/>
      <point x="234" y="448" type="curve" smooth="yes"/>
      <point x="165" y="448"/>
      <point x="104" y="348"/>
      <point x="104" y="225" type="curve" smooth="yes"/>
      <point x="104" y="109"/>
      <point x="166" y="24"/>
      <point x="261" y="23" type="curve" smooth="yes"/>
      <point x="326" y="22"/>
      <point x="366" y="55"/>
      <point x="403" y="124" type="curve"/>
      <point x="408" y="124" type="line"/>
      <point x="446" y="57"/>
      <point x="493" y="23"/>
      <point x="557" y="23" type="curve" smooth="yes"/>
      <point x="630" y="23"/>
      <point x="687" y="86"/>
      <point x="687" y="179" type="curve" smooth="yes"/>
      <point x="687" y="275"/>
      <point x="646" y="360"/>
      <point x="545" y="433" type="curve"/>
    </contour>
  </outline>
</glyph>
<glyph name="knCHI" format="1">
  <advance width="800"/>
  <outline>
    <contour>
      <point x="406" y="-93" type="move"/>
      <point x="406" y="-196" type="line"/>
    </contour>
    <contour>
      <point x="406" y="-93" type="move"/>
      <point x="406" y="-196" type="line"/>
    </contour>
    <contour>
      <point x="130" y="350" type="move"/>
      <point x="158" y="308"/>
      <point x="192" y="282"/>
      <point x="234" y="282" type="curve" smooth="yes"/>
      <point x="282" y="282"/>
      <point x="322" y="314"/>
      <point x="322" y="364" type="curve" smooth="yes"/>
      <point x="322" y="413"/>
      <point x="289" y="448"/>
      <point x="234" y="448" type="curve" smooth="yes"/>
      <point x="165" y="448"/>
      <point x="104" y="348"/>
      <point x="104" y="225" type="curve" smooth="yes"/>
      <point x="104" y="109"/>
      <point x="166" y="24"/>
      <point x="261" y="23" type="curve" smooth="yes"/>
      <point x="326" y="22"/>
      <point x="366" y="55"/>
      <point x="403" y="124" type="curve"/>
      <point x="408" y="124" type="line"/>
      <point x="446" y="57"/>
      <point x="493" y="23"/>
      <point x="557" y="23" type="curve" smooth="yes"/>
      <point x="653" y="23"/>
      <point x="717" y="94"/>
      <point x="717" y="222" type="curve" smooth="yes"/>
      <point x="717" y="353"/>
      <point x="669" y="473"/>
      <point x="583" y="559" type="curve" smooth="yes"/>
      <point x="548" y="594"/>
      <point x="512" y="611"/>
      <point x="469" y="611" type="curve" smooth="yes"/>
      <point x="409" y="611"/>
      <point x="379" y="565"/>
      <point x="379" y="527" type="curve" smooth="yes"/>
      <point x="379" y="486"/>
      <point x="410" y="446"/>
      <point x="467" y="446" type="curve" smooth="yes"/>
      <point x="519" y="446"/>
      <point x="560" y="476"/>
      <point x="599" y="539" type="curve"/>
    </contour>
  </outline>
</glyph>
<glyph name="knCI" format="1">
  <advance width="805"/>
  <outline>
    <contour>
      <point x="438" y="286" type="move"/>
      <point x="715" y="286" type="line"/>
    </contour>
    <contour>
      <point x="495" y="286" type="move"/>
      <point x="613" y="296"/>
      <point x="678" y="376"/>
      <point x="678" y="469" type="curve" smooth="yes"/>
      <point x="678" y="540"/>
      <point x="626" y="611"/>
      <point x="556" y="611" type="curve" smooth="yes"/>
      <point x="500" y="611"/>
      <point x="465" y="571"/>
      <point x="465" y="526" type="curve" smooth="yes"/>
      <point x="465" y="480"/>
      <point x="502" y="446"/>
      <point x="550" y="446" type="curve" smooth="yes"/>
      <point x="596" y="446"/>
      <point x="631" y="466"/>
      <point x="668" y="514" type="curve"/>
    </contour>
    <contour>
      <point x="92" y="402" type="move"/>
      <point x="117" y="430"/>
      <point x="147" y="448"/>
      <point x="183" y="448" type="curve" smooth="yes"/>
      <point x="235" y="448"/>
      <point x="268" y="414"/>
      <point x="268" y="371" type="curve" smooth="yes"/>
      <point x="268" y="332"/>
      <point x="246" y="299"/>
      <point x="189" y="253" type="curve" smooth="yes"/>
      <point x="141" y="214"/>
      <point x="110" y="173"/>
      <point x="110" y="125" type="curve" smooth="yes"/>
      <point x="110" y="70"/>
      <point x="149" y="23"/>
      <point x="222" y="23" type="curve"/>
      <point x="289" y="23"/>
      <point x="334" y="52"/>
      <point x="379" y="124" type="curve"/>
      <point x="384" y="124" type="line"/>
      <point x="426" y="59"/>
      <point x="472" y="23"/>
      <point x="545" y="23" type="curve" smooth="yes"/>
      <point x="617" y="23"/>
      <point x="660" y="75"/>
      <point x="660" y="133" type="curve" smooth="yes"/>
      <point x="660" y="183"/>
      <point x="637" y="235"/>
      <point x="577" y="283" type="curve"/>
    </contour>
  </outline>
</glyph>
<glyph name="knDDA.base" format="1">
  <advance width="755"/>
  <outline>
    <contour>
      <point x="108" y="433" type="move"/>
      <point x="528" y="433" type="line" smooth="yes"/>
    </contour>
    <contour>
      <point x="299" y="433" type="move"/>
      <point x="175" y="378"/>
      <point x="106" y="266"/>
      <point x="106" y="164" type="curve" smooth="yes"/>
      <point x="106" y="74"/>
      <point x="165" y="23"/>
      <point x="233" y="23" type="curve" smooth="yes"/>
      <point x="298" y="23"/>
      <point x="338" y="56"/>
      <point x="374" y="124" type="curve"/>
      <point x="379" y="124" type="line"/>
      <point x="417" y="54"/>
      <point x="477" y="23"/>
      <point x="533" y="23" type="curve" smooth="yes"/>
      <point x="624" y="23"/>
      <point x="678" y="81"/>
      <point x="678" y="168" type="curve" smooth="yes"/>
      <point x="678" y="237"/>
      <point x="627" y="344"/>
      <point x="478" y="433" type="curve"/>
    </contour>
    <contour>
      <point x="571" y="352" type="move"/>
      <point x="502" y="352"/>
      <point x="461" y="300"/>
      <point x="461" y="257" type="curve" smooth="yes"/>
      <point x="461" y="214"/>
      <point x="497" y="177"/>
      <point x="547" y="177" type="curve" smooth="yes"/>
      <point x="595" y="177"/>
      <point x="632" y="203"/>
      <point x="654" y="251" type="curve"/>
    </contour>
  </outline>
</glyph>
<glyph name="knDDHI" format="1">
  <advance width="757"/>
  <outline>
    <contour>
      <point x="367" y="-93" type="move"/>
      <point x="367" y="-196" type="line"/>
    </contour>
    <component base="knDDI"/>
  </outline>
</glyph>
<glyph name="knGHAU" format="1">
  <advance width="1153"/>
  <outline>
    <contour>
      <point x="528" y="433" type="move"/>
      <point x="623" y="433" type="line"/>
    </contour>
    <component base="knGHA.base"/>
    <component base="knsignAU" xOffset="816"/>
  </outline>
</glyph>
<glyph name="knGH" format="1">
  <advance width="1100"/>
  <outline>
    <contour>
      <point x="539" y="433" type="move"/>
      <point x="634" y="433" type="line"/>
    </contour>
    <component base="knGHA.base"/>
    <component base="knVirama" xOffset="820"/>
  </outline>
</glyph>
<glyph name="knGI" format="1">
  <advance width="590"/>
  <outline>
    <contour>
      <point x="465" y="23" type="move"/>
      <point x="487" y="69"/>
      <point x="501" y="114"/>
      <point x="500" y="176" type="curve" smooth="yes"/>
      <point x="499" y="299"/>
      <point x="407" y="417"/>
      <point x="295" y="417" type="curve" smooth="yes"/>
      <point x="181" y="417"/>
      <point x="95" y="300"/>
      <point x="95" y="176" type="curve" smooth="yes"/>
      <point x="95" y="115"/>
      <point x="107" y="67"/>
      <point x="130" y="23" type="curve"/>
    </contour>
    <contour>
      <point x="490" y="253" type="move"/>
      <point x="490" y="405"/>
      <point x="474" y="454"/>
      <point x="426" y="502" type="curve" smooth="yes"/>
      <point x="388" y="540"/>
      <point x="336" y="566"/>
      <point x="265" y="566" type="curve" smooth="yes"/>
      <point x="142" y="566"/>
      <point x="95" y="504"/>
      <point x="95" y="448" type="curve" smooth="yes"/>
      <point x="95" y="414"/>
      <point x="112" y="380"/>
      <point x="147" y="347" type="curve"/>
    </contour>
  </outline>
</glyph>
<glyph name="knHA.base" format="1">
  <advance width="763"/>
  <outline>
    <contour>
      <point x="382" y="150" type="curve" smooth="yes"/>
      <point x="382" y="218"/>
      <point x="326" y="280"/>
      <point x="235" y="280" type="curve" smooth="yes"/>
      <point x="151" y="280"/>
      <point x="97" y="218"/>
      <point x="97" y="150" type="curve" smooth="yes"/>
      <point x="97" y="80"/>
      <point x="150" y="19"/>
      <point x="235" y="19" type="curve" smooth="yes"/>
      <point x="324" y="19"/>
      <point x="382" y="80"/>
    </contour>
    <contour>
      <point x="693" y="150" type="curve" smooth="yes"/>
      <point x="693" y="218"/>
      <point x="641" y="280"/>
      <point x="553" y="280" type="curve" smooth="yes"/>
      <point x="467" y="280"/>
      <point x="408" y="218"/>
      <point x="408" y="150" type="curve" smooth="yes"/>
      <point x="408" y="80"/>
      <point x="468" y="19"/>
      <point x="553" y="19" type="curve" smooth="yes"/>
      <point x="642" y="19"/>
      <point x="693" y="80"/>
    </contour>
    <contour>
      <point x="114" y="433" type="move"/>
      <point x="555" y="433" type="line" smooth="yes"/>
    </contour>
    <contour>
      <point x="395" y="210" type="move"/>
      <point x="395" y="405" type="line" smooth="yes"/>
    </contour>
  </outline>
</glyph>
<glyph name="knHI" format="1">
  <advance width="766"/>
  <outline>
    <contour>
      <point x="375" y="150" type="curve" smooth="yes"/>
      <point x="375" y="218"/>
      <point x="319" y="280"/>
      <point x="228" y="280" type="curve" smooth="yes"/>
      <point x="144" y="280"/>
      <point x="90" y="218"/>
      <point x="90" y="150" type="curve" smooth="yes"/>
      <point x="90" y="80"/>
      <point x="143" y="19"/>
      <point x="228" y="19" type="curve" smooth="yes"/>
      <point x="317" y="19"/>
      <point x="375" y="80"/>
    </contour>
    <contour>
      <point x="686" y="150" type="curve" smooth="yes"/>
      <point x="686" y="218"/>
      <point x="634" y="280"/>
      <point x="546" y="280" type="curve" smooth="yes"/>
      <point x="460" y="280"/>
      <point x="401" y="218"/>
      <point x="401" y="150" type="curve" smooth="yes"/>
      <point x="401" y="80"/>
      <point x="461" y="19"/>
      <point x="546" y="19" type="curve" smooth="yes"/>
      <point x="635" y="19"/>
      <point x="686" y="80"/>
    </contour>
    <contour>
      <point x="175" y="271" type="move"/>
      <point x="303" y="311"/>
      <point x="353" y="386"/>
      <point x="353" y="469" type="curve" smooth="yes"/>
      <point x="353" y="540"/>
      <point x="301" y="611"/>
      <point x="231" y="611" type="curve" smooth="yes"/>
      <point x="175" y="611"/>
      <point x="140" y="571"/>
      <point x="140" y="526" type="curve" smooth="yes"/>
      <point x="140" y="480"/>
      <point x="177" y="446"/>
      <point x="225" y="446" type="curve" smooth="yes"/>
      <point x="271" y="446"/>
      <point x="306" y="466"/>
      <point x="343" y="514" type="curve"/>
    </contour>
  </outline>
</glyph>
<glyph name="knJAc2" format="1">
  <advance width="0"/>
  <outline>
    <contour>
      <point x="57" y="-133" type="move"/>
      <point x="59" y="-142"/>
      <point x="60" y="-148"/>
      <point x="60" y="-158" type="curve" smooth="yes"/>
      <point x="60" y="-193"/>
      <point x="39" y="-225"/>
      <point x="-15" y="-225" type="curve" smooth="yes"/>
      <point x="-67" y="-225"/>
      <point x="-116" y="-196"/>
      <point x="-160" y="-147" type="curve"/>
    </contour>
    <contour>
      <point x="-281" y="-135" type="move"/>
      <point x="-262" y="-125"/>
      <point x="-244" y="-121"/>
      <point x="-220" y="-121" type="curve" smooth="yes"/>
      <point x="-187" y="-121"/>
      <point x="-158" y="-142"/>
      <point x="-158" y="-171" type="curve" smooth="yes"/>
      <point x="-158" y="-192"/>
      <point x="-177" y="-212"/>
      <point x="-213" y="-231" type="curve" smooth="yes"/>
      <point x="-243" y="-247"/>
      <point x="-263" y="-271"/>
      <point x="-263" y="-298" type="curve" smooth="yes"/>
      <point x="-263" y="-331"/>
      <point x="-236" y="-356"/>
      <point x="-188" y="-356" type="curve" smooth="yes"/>
      <point x="-149" y="-356"/>
      <point x="-115" y="-341"/>
      <point x="-76" y="-305" type="curve"/>
      <point x="-72" y="-305" type="line"/>
      <point x="-36" y="-341"/>
      <point x="1" y="-356"/>
      <point x="39" y="-356" type="curve" smooth="yes"/>
      <point x="89" y="-356"/>
      <point x="116" y="-326"/>
      <point x="116" y="-290" type="curve" smooth="yes"/>
      <point x="116" y="-280"/>
      <point x="115" y="-272"/>
      <point x="112" y="-262" type="curve"/>
    </contour>
  </outline>
</glyph>
<glyph name="knKA.base" format="1">
  <advance width="688"/>
  <outline>
    <contour>
      <point x="98" y="433" type="move"/>
      <point x="480" y="433" type="line" smooth="yes"/>
    </contour>
    <contour>
      <point x="94" y="278" type="move"/>
      <point x="607" y="278" type="line" smooth="yes"/>
    </contour>
    <contour>
      <point x="352" y="281" type="move"/>
      <point x="352" y="405" type="line" smooth="yes"/>
    </contour>
    <contour>
      <point x="309" y="276" type="move"/>
      <point x="233" y="264"/>
      <point x="185" y="209"/>
      <point x="185" y="147" type="curve" smooth="yes"/>
      <point x="185" y="83"/>
      <point x="228" y="15"/>
      <point x="351" y="15" type="curve" smooth="yes"/>
      <point x="477" y="15"/>
      <point x="519" y="84"/>
      <point x="519" y="147" type="curve" smooth="yes"/>
      <point x="519" y="209"/>
      <point x="470" y="265"/>
      <point x="394" y="276" type="curve"/>
    </contour>
  </outline>
</glyph>
<glyph name="knKHAc2" format="1">
  <advance width="119"/>
  <outline>
    <contour>
      <point x="-227" y="-139" type="move"/>
      <point x="-212" y="-134"/>
      <point x="-191" y="-128"/>
      <point x="-164" y="-128" type="curve" smooth="yes"/>
      <point x="-104" y="-128"/>
      <point x="-53" y="-160"/>
      <point x="-53" y="-226" type="curve" smooth="yes"/>
      <point x="-53" y="-290"/>
      <point x="-113" y="-356"/>
      <point x="-203" y="-356" type="curve" smooth="yes"/>
      <point x="-246" y="-356"/>
      <point x="-274" y="-331"/>
      <point x="-274" y="-298" type="curve" smooth="yes"/>
      <point x="-274" y="-266"/>
      <point x="-251" y="-246"/>
      <point x="-213" y="-246" type="curve" smooth="yes"/>
      <point x="-179" y="-246"/>
      <point x="-138" y="-262"/>
      <point x="-98" y="-300" type="curve" smooth="yes"/>
      <point x="-58" y="-338"/>
      <point x="-19" y="-352"/>
      <point x="22" y="-352" type="curve" smooth="yes"/>
      <point x="80" y="-352"/>
      <point x="116" y="-313"/>
      <point x="116" y="-225" type="curve" smooth="yes"/>
      <point x="116" y="-145"/>
      <point x="87" y="-19"/>
      <point x="56" y="44" type="curve"/>
    </contour>
  </outline>
</glyph>
<glyph name="knKHI" format="1">
  <advance width="808"/>
  <outline>
    <contour>
      <point x="274" y="434" type="move"/>
      <point x="280" y="419"/>
      <point x="288" y="397"/>
      <point x="288" y="373" type="curve" smooth="yes"/>
      <point x="288" y="323"/>
      <point x="251" y="288"/>
      <point x="193" y="288" type="curve" smooth="yes"/>
      <point x="147" y="288"/>
      <point x="111" y="322"/>
      <point x="111" y="365" type="curve" smooth="yes"/>
      <point x="111" y="404"/>
      <point x="142" y="447"/>
      <point x="208" y="447" type="curve" smooth="yes"/>
      <point x="333" y="447"/>
      <point x="419" y="353"/>
      <point x="419" y="238" type="curve" smooth="yes"/>
      <point x="419" y="141"/>
      <point x="342" y="19"/>
      <point x="208" y="19" type="curve" smooth="yes"/>
      <point x="130" y="19"/>
      <point x="100" y="59"/>
      <point x="100" y="97" type="curve" smooth="yes"/>
      <point x="100" y="132"/>
      <point x="134" y="175"/>
      <point x="197" y="175" type="curve" smooth="yes"/>
      <point x="262" y="175"/>
      <point x="324" y="142"/>
      <point x="379" y="96" type="curve" smooth="yes"/>
      <point x="439" y="45"/>
      <point x="492" y="23"/>
      <point x="559" y="23" type="curve" smooth="yes"/>
      <point x="658" y="23"/>
      <point x="728" y="86"/>
      <point x="728" y="239" type="curve" smooth="yes"/>
      <point x="728" y="365"/>
      <point x="668" y="498"/>
      <point x="598" y="568" type="curve" smooth="yes"/>
      <point x="572" y="594"/>
      <point x="536" y="611"/>
      <point x="493" y="611" type="curve" smooth="yes"/>
      <point x="433" y="611"/>
      <point x="403" y="565"/>
      <point x="403" y="527" type="curve" smooth="yes"/>
      <point x="403" y="486"/>
      <point x="434" y="446"/>
      <point x="491" y="446" type="curve" smooth="yes"/>
      <point x="543" y="446"/>
      <point x="585" y="476"/>
      <point x="623" y="538" type="curve"/>
    </contour>
  </outline>
</glyph>
<glyph name="knKI" format="1">
  <advance width="677"/>
  <outline>
    <contour>
      <point x="84" y="278" type="move"/>
      <point x="597" y="278" type="line" smooth="yes"/>
    </contour>
    <contour>
      <point x="299" y="276" type="move"/>
      <point x="223" y="264"/>
      <point x="175" y="209"/>
      <point x="175" y="147" type="curve" smooth="yes"/>
      <point x="175" y="83"/>
      <point x="218" y="15"/>
      <point x="341" y="15" type="curve" smooth="yes"/>
      <point x="467" y="15"/>
      <point x="509" y="84"/>
      <point x="509" y="147" type="curve" smooth="yes"/>
      <point x="509" y="209"/>
      <point x="460" y="265"/>
      <point x="384" y="276" type="curve"/>
    </contour>
    <contour>
      <point x="273" y="277" type="move"/>
      <point x="391" y="296"/>
      <point x="456" y="376"/>
      <point x="456" y="469" type="curve" smooth="yes"/>
      <point x="456" y="540"/>
      <point x="404" y="611"/>
      <point x="334" y="611" type="curve" smooth="yes"/>
      <point x="278" y="611"/>
      <point x="243" y="571"/>
      <point x="243" y="526" type="curve" smooth="yes"/>
      <point x="243" y="480"/>
      <point x="280" y="446"/>
      <point x="328" y="446" type="curve" smooth="yes"/>
      <point x="374" y="446"/>
      <point x="409" y="466"/>
      <point x="446" y="514" type="curve"/>
    </contour>
  </outline>
</glyph>
<glyph name="knLAc2" format="1">
  <advance width="0"/>
  <outline>
    <contour>
      <point x="74" y="-300" type="move"/>
      <point x="79" y="-281"/>
      <point x="84" y="-270"/>
      <point x="84" y="-247" type="curve" smooth="yes"/>
      <point x="84" y="-191"/>
      <point x="50" y="-154"/>
      <point x="-13" y="-154" type="curve" smooth="yes"/>
      <point x="-69" y="-154"/>
      <point x="-105" y="-190"/>
      <point x="-137" y="-251" type="curve"/>
      <point x="-142" y="-251" type="line"/>
      <point x="-172" y="-190"/>
      <point x="-213" y="-153"/>
      <point x="-273" y="-153" type="curve" smooth="yes"/>
      <point x="-337" y="-153"/>
      <point x="-367" y="-193"/>
      <point x="-367" y="-239" type="curve" smooth="yes"/>
      <point x="-367" y="-264"/>
      <point x="-360" y="-280"/>
      <point x="-350" y="-300" type="curve"/>
    </contour>
  </outline>
</glyph>
<glyph name="knLLAc2" format="1">
  <advance width="119"/>
  <outline>
    <contour>
      <point x="-213" y="-216" type="move"/>
      <point x="-194" y="-226"/>
      <point x="-170" y="-234"/>
      <point x="-144" y="-234" type="curve" smooth="yes"/>
      <point x="-108" y="-234"/>
      <point x="-78" y="-217"/>
      <point x="-78" y="-179" type="curve" smooth="yes"/>
      <point x="-78" y="-152"/>
      <point x="-97" y="-125"/>
      <point x="-140" y="-125" type="curve" smooth="yes"/>
      <point x="-186" y="-125"/>
      <point x="-218" y="-166"/>
      <point x="-218" y="-215" type="curve" smooth="yes"/>
      <point x="-218" y="-245"/>
      <point x="-207" y="-272"/>
      <point x="-185" y="-294" type="curve" smooth="yes"/>
      <point x="-163" y="-316"/>
      <point x="-126" y="-336"/>
      <point x="-52" y="-336" type="curve" smooth="yes"/>
      <point x="7" y="-336"/>
      <point x="51" y="-313"/>
      <point x="73" y="-291" type="curve" smooth="yes"/>
      <point x="99" y="-265"/>
      <point x="114" y="-232"/>
      <point x="114" y="-182" type="curve" smooth="yes"/>
      <point x="114" y="-130"/>
      <point x="94" y="-51"/>
      <point x="55" y="44" type="curve"/>
    </contour>
    <contour>
      <point x="-98" y="-333" type="move"/>
      <point x="-110" y="-343"/>
      <point x="-120" y="-359"/>
      <point x="-120" y="-377" type="curve" smooth="yes"/>
      <point x="-120" y="-405"/>
      <point x="-97" y="-428"/>
      <point x="-49" y="-428" type="curve" smooth="yes"/>
      <point x="0" y="-428"/>
      <point x="27" y="-405"/>
      <point x="27" y="-376" type="curve" smooth="yes"/>
      <point x="27" y="-355"/>
      <point x="16" y="-343"/>
      <point x="6" y="-331" type="curve"/>
    </contour>
  </outline>
</glyph>
<glyph name="knLLLAc2" format="1">
  <advance width="0"/>
  <outline>
    <contour>
      <point x="-251" y="-200" type="move"/>
      <point x="-222" y="-219"/>
      <point x="-200" y="-227"/>
      <point x="-171" y="-227" type="curve" smooth="yes"/>
      <point x="-138" y="-227"/>
      <point x="-110" y="-207"/>
      <point x="-110" y="-174" type="curve" smooth="yes"/>
      <point x="-110" y="-142"/>
      <point x="-132" y="-121"/>
      <point x="-170" y="-121" type="curve" smooth="yes"/>
      <point x="-220" y="-121"/>
      <point x="-261" y="-174"/>
      <point x="-261" y="-248" type="curve"/>
      <point x="-261" y="-317"/>
      <point x="-217" y="-356"/>
      <point x="-159" y="-356" type="curve" smooth="yes"/>
      <point x="-113" y="-356"/>
      <point x="-86" y="-339"/>
      <point x="-61" y="-310" type="curve"/>
      <point x="-58" y="-310" type="line"/>
      <point x="-32" y="-339"/>
      <point x="-6" y="-356"/>
      <point x="40" y="-356" type="curve" smooth="yes"/>
      <point x="98" y="-356"/>
      <point x="142" y="-317"/>
      <point x="142" y="-248" type="curve"/>
      <point x="142" y="-174"/>
      <point x="100" y="-121"/>
      <point x="50" y="-121" type="curve" smooth="yes"/>
      <point x="11" y="-121"/>
      <point x="-8" y="-145"/>
      <point x="-8" y="-175" type="curve" smooth="yes"/>
      <point x="-8" y="-208"/>
      <point x="19" y="-227"/>
      <point x="52" y="-227" type="curve" smooth="yes"/>
      <point x="82" y="-227"/>
      <point x="104" y="-219"/>
      <point x="133" y="-201" type="curve"/>
    </contour>
  </outline>
</glyph>
<glyph name="knME" format="1">
  <advance width="1029"/>
  <outline>
    <contour>
      <point x="118" y="433" type="move"/>
      <point x="483" y="433" type="line" smooth="yes"/>
    </contour>
    <contour>
      <point x="189" y="216" type="move"/>
      <point x="127" y="207"/>
      <point x="93" y="166"/>
      <point x="93" y="118" type="curve" smooth="yes"/>
      <point x="93" y="65"/>
      <point x="136" y="23"/>
      <point x="204" y="23" type="curve" smooth="yes"/>
      <point x="280" y="23"/>
      <point x="324" y="55"/>
      <point x="361" y="124" type="curve"/>
      <point x="366" y="124" type="line"/>
      <point x="408" y="59"/>
      <point x="450" y="23"/>
      <point x="518" y="23" type="curve" smooth="yes"/>
      <point x="584" y="23"/>
      <point x="638" y="74"/>
      <point x="638" y="154" type="curve" smooth="yes"/>
      <point x="638" y="242"/>
      <point x="575" y="348"/>
      <point x="429" y="430" type="curve"/>
    </contour>
    <contour>
      <point x="635" y="122" type="move"/>
      <point x="683" y="50"/>
      <point x="734" y="23"/>
      <point x="795" y="23" type="curve" smooth="yes"/>
      <point x="887" y="23"/>
      <point x="934" y="83"/>
      <point x="934" y="169" type="curve" smooth="yes"/>
      <point x="934" y="250"/>
      <point x="888" y="346"/>
      <point x="828" y="412" type="curve"/>
    </contour>
    <component base="knsignE" xOffset="679"/>
  </outline>
</glyph>
<glyph name="knMI" format="1">
  <advance width="1029"/>
  <outline>
    <contour>
      <point x="637" y="125" type="move"/>
      <point x="687" y="50"/>
      <point x="739" y="23"/>
      <point x="800" y="23" type="curve" smooth="yes"/>
      <point x="892" y="23"/>
      <point x="939" y="83"/>
      <point x="939" y="169" type="curve" smooth="yes"/>
      <point x="939" y="250"/>
      <point x="893" y="346"/>
      <point x="833" y="412" type="curve"/>
    </contour>
    <contour>
      <point x="189" y="216" type="move"/>
      <point x="127" y="207"/>
      <point x="93" y="166"/>
      <point x="93" y="118" type="curve" smooth="yes"/>
      <point x="93" y="65"/>
      <point x="136" y="23"/>
      <point x="204" y="23" type="curve" smooth="yes"/>
      <point x="280" y="23"/>
      <point x="324" y="55"/>
      <point x="361" y="124" type="curve"/>
      <point x="366" y="124" type="line"/>
      <point x="408" y="59"/>
      <point x="450" y="23"/>
      <point x="518" y="23" type="curve" smooth="yes"/>
      <point x="584" y="23"/>
      <point x="638" y="67"/>
      <point x="638" y="178" type="curve" smooth="yes"/>
      <point x="638" y="293"/>
      <point x="576" y="440"/>
      <point x="481" y="535" type="curve"/>
      <point x="422" y="594"/>
      <point x="386" y="611"/>
      <point x="343" y="611" type="curve" smooth="yes"/>
      <point x="283" y="611"/>
      <point x="253" y="565"/>
      <point x="253" y="527" type="curve" smooth="yes"/>
      <point x="253" y="486"/>
      <point x="284" y="446"/>
      <point x="341" y="446" type="curve" smooth="yes"/>
      <point x="393" y="446"/>
      <point x="435" y="477"/>
      <point x="474" y="540" type="curve"/>
    </contour>
  </outline>
</glyph>
<glyph name="knNGAA" format="1">
  <advance width="1094"/>
  <outline>
    <contour>
      <point x="600" y="433" type="move"/>
      <point x="753" y="433" type="line" smooth="yes"/>
      <point x="899" y="433"/>
      <point x="1004" y="337"/>
      <point x="1004" y="167" type="curve" smooth="yes"/>
      <point x="1004" y="74"/>
      <point x="957" y="19"/>
      <point x="894" y="19" type="curve" smooth="yes"/>
      <point x="838" y="19"/>
      <point x="805" y="60"/>
      <point x="805" y="106" type="curve" smooth="yes"/>
      <point x="805" y="160"/>
      <point x="841" y="206"/>
      <point x="915" y="206" type="curve" smooth="yes"/>
      <point x="944" y="206"/>
      <point x="974" y="199"/>
      <point x="999" y="191" type="curve"/>
    </contour>
    <component base="knNGA.base"/>
  </outline>
</glyph>
<glyph name="knNNA.base" format="1">
  <advance width="749"/>
  <outline>
    <contour>
      <point x="111" y="433" type="move"/>
      <point x="558" y="433" type="line"/>
    </contour>
    <contour>
      <point x="219" y="173" type="move"/>
      <point x="155" y="175"/>
      <point x="102" y="145"/>
      <point x="102" y="97" type="curve" smooth="yes"/>
      <point x="102" y="51"/>
      <point x="149" y="22"/>
      <point x="226" y="22" type="curve" smooth="yes"/>
      <point x="245" y="22"/>
      <point x="263" y="25"/>
      <point x="281" y="29" type="curve"/>
    </contour>
    <contour>
      <point x="651" y="121" type="move"/>
      <point x="623" y="149"/>
      <point x="590" y="169"/>
      <point x="536" y="169" type="curve" smooth="yes"/>
      <point x="472" y="169"/>
      <point x="443" y="131"/>
      <point x="443" y="92" type="curve" smooth="yes"/>
      <point x="443" y="50"/>
      <point x="482" y="18"/>
      <point x="535" y="18" type="curve" smooth="yes"/>
      <point x="612" y="18"/>
      <point x="663" y="66"/>
      <point x="662" y="174" type="curve" smooth="yes"/>
      <point x="661" y="286"/>
      <point x="601" y="335"/>
      <point x="523" y="335" type="curve" smooth="yes"/>
      <point x="461" y="335"/>
      <point x="414" y="295"/>
      <point x="379" y="242" type="curve"/>
      <point x="375" y="242" type="line"/>
      <point x="343" y="293"/>
      <point x="293" y="336"/>
      <point x="218" y="336" type="curve" smooth="yes"/>
      <point x="146" y="336"/>
      <point x="114" y="298"/>
      <point x="114" y="257" type="curve" smooth="yes"/>
      <point x="114" y="212"/>
      <point x="163" y="173"/>
      <point x="232" y="173" type="curve" smooth="yes"/>
      <point x="236" y="173"/>
      <point x="238" y="173"/>
      <point x="242" y="173" type="curve"/>
    </contour>
  </outline>
</glyph>
<glyph name="knNNAc2" format="1">
  <advance width="0"/>
  <outline>
    <contour>
      <point x="-177" y="-244" type="move"/>
      <point x="-235" y="-247"/>
      <point x="-254" y="-276"/>
      <point x="-254" y="-301" type="curve" smooth="yes"/>
      <point x="-254" y="-330"/>
      <point x="-235" y="-352"/>
      <point x="-174" y="-355" type="curve"/>
    </contour>
    <contour>
      <point x="102" y="-266" type="move"/>
      <point x="78" y="-254"/>
      <point x="55" y="-246"/>
      <point x="29" y="-246" type="curve" smooth="yes"/>
      <point x="-9" y="-246"/>
      <point x="-35" y="-273"/>
      <point x="-35" y="-302" type="curve" smooth="yes"/>
      <point x="-35" y="-333"/>
      <point x="-10" y="-356"/>
      <point x="29" y="-356" type="curve" smooth="yes"/>
      <point x="79" y="-356"/>
      <point x="112" y="-318"/>
      <point x="112" y="-250" type="curve" smooth="yes"/>
      <point x="112" y="-170"/>
      <point x="71" y="-131"/>
      <point x="16" y="-131" type="curve" smooth="yes"/>
      <point x="-18" y="-131"/>
      <point x="-48" y="-150"/>
      <point x="-75" y="-180" type="curve"/>
      <point x="-77" y="-180" type="line"/>
      <point x="-105" y="-152"/>
      <point x="-127" y="-128"/>
      <point x="-178" y="-128" type="curve" smooth="yes"/>
      <point x="-222" y="-128"/>
      <point x="-248" y="-157"/>
      <point x="-247" y="-188" type="curve" smooth="yes"/>
      <point x="-246" y="-211"/>
      <point x="-229" y="-239"/>
      <point x="-179" y="-243" type="curve"/>
    </contour>
  </outline>
</glyph>
<glyph name="knNNI" format="1">
  <advance width="779"/>
  <outline>
    <contour>
      <point x="533" y="398" type="move"/>
      <point x="603" y="415"/>
      <point x="653" y="483"/>
      <point x="653" y="549" type="curve" smooth="yes"/>
      <point x="653" y="615"/>
      <point x="601" y="684"/>
      <point x="531" y="684" type="curve" smooth="yes"/>
      <point x="475" y="684"/>
      <point x="440" y="647"/>
      <point x="440" y="605" type="curve" smooth="yes"/>
      <point x="440" y="559"/>
      <point x="477" y="528"/>
      <point x="525" y="528" type="curve" smooth="yes"/>
      <point x="571" y="528"/>
      <point x="606" y="544"/>
      <point x="643" y="588" type="curve"/>
    </contour>
    <contour>
      <point x="233" y="204" type="move"/>
      <point x="168" y="206"/>
      <point x="102" y="170"/>
      <point x="102" y="113" type="curve" smooth="yes"/>
      <point x="102" y="58"/>
      <point x="150" y="24"/>
      <point x="230" y="24" type="curve" smooth="yes"/>
      <point x="259" y="24"/>
      <point x="282" y="27"/>
      <point x="300" y="32" type="curve"/>
    </contour>
    <contour>
      <point x="672" y="130" type="move"/>
      <point x="643" y="158"/>
      <point x="609" y="181"/>
      <point x="557" y="181" type="curve" smooth="yes"/>
      <point x="494" y="181"/>
      <point x="458" y="140"/>
      <point x="458" y="98" type="curve" smooth="yes"/>
      <point x="458" y="51"/>
      <point x="500" y="18"/>
      <point x="552" y="18" type="curve" smooth="yes"/>
      <point x="632" y="18"/>
      <point x="685" y="62"/>
      <point x="685" y="205" type="curve" smooth="yes"/>
      <point x="685" y="340"/>
      <point x="626" y="398"/>
      <point x="544" y="398" type="curve" smooth="yes"/>
      <point x="480" y="398"/>
      <point x="428" y="360"/>
      <point x="392" y="298" type="curve"/>
      <point x="388" y="298" type="line"/>
      <point x="355" y="360"/>
      <point x="304" y="398"/>
      <point x="230" y="398" type="curve" smooth="yes"/>
      <point x="156" y="398"/>
      <point x="114" y="353"/>
      <point x="114" y="304" type="curve" smooth="yes"/>
      <point x="114" y="251"/>
      <point x="165" y="204"/>
      <point x="246" y="204" type="curve" smooth="yes"/>
      <point x="250" y="204"/>
      <point x="252" y="204"/>
      <point x="256" y="204" type="curve"/>
    </contour>
  </outline>
</glyph>
<glyph name="knNYA.base" format="1">
  <advance width="901"/>
  <outline>
    <contour>
      <point x="744" y="433" type="move"/>
      <point x="875" y="433" type="line"/>
    </contour>
    <component base="knNYA"/>
  </outline>
</glyph>
<glyph name="knNYE" format="1">
  <advance width="1261"/>
  <outline>
    <contour>
      <point x="571" y="-23" type="move"/>
      <point x="521" y="124"/>
      <point x="429" y="202"/>
      <point x="335" y="202" type="curve" smooth="yes"/>
      <point x="263" y="202"/>
      <point x="230" y="159"/>
      <point x="230" y="122" type="curve" smooth="yes"/>
      <point x="230" y="84"/>
      <point x="263" y="43"/>
      <point x="336" y="43" type="curve" smooth="yes"/>
      <point x="503" y="43"/>
      <point x="624" y="205"/>
      <point x="624" y="312" type="curve" smooth="yes"/>
      <point x="624" y="391"/>
      <point x="577" y="439"/>
      <point x="508" y="439" type="curve" smooth="yes"/>
      <point x="440" y="439"/>
      <point x="399" y="394"/>
      <point x="360" y="326" type="curve"/>
      <point x="355" y="326" type="line"/>
      <point x="318" y="393"/>
      <point x="271" y="440"/>
      <point x="199" y="440" type="curve" smooth="yes"/>
      <point x="130" y="440"/>
      <point x="88" y="389"/>
      <point x="88" y="328" type="curve" smooth="yes"/>
      <point x="88" y="304"/>
      <point x="95" y="280"/>
      <point x="111" y="254" type="curve"/>
    </contour>
    <contour>
      <point x="947" y="433" type="move"/>
      <point x="1062" y="433" type="line" smooth="yes"/>
      <point x="1179" y="433"/>
      <point x="1213" y="479"/>
      <point x="1213" y="532" type="curve" smooth="yes"/>
      <point x="1213" y="578"/>
      <point x="1178" y="612"/>
      <point x="1127" y="612" type="curve" smooth="yes"/>
      <point x="1072" y="612"/>
      <point x="1033" y="568"/>
      <point x="1033" y="508" type="curve" smooth="yes"/>
      <point x="1033" y="481"/>
      <point x="1040" y="454"/>
      <point x="1044" y="438" type="curve"/>
      <point x="1044" y="438"/>
    </contour>
    <contour>
      <point x="624" y="345" type="move"/>
      <point x="654" y="395"/>
      <point x="693" y="433"/>
      <point x="748" y="433" type="curve" smooth="yes"/>
      <point x="814" y="433"/>
      <point x="838" y="384"/>
      <point x="838" y="332" type="curve" smooth="yes"/>
      <point x="838" y="276"/>
      <point x="873" y="244"/>
      <point x="924" y="244" type="curve" smooth="yes"/>
      <point x="999" y="244"/>
      <point x="1041" y="311"/>
      <point x="1041" y="435" type="curve"/>
    </contour>
  </outline>
</glyph>
<glyph name="knNYI" format="1">
  <advance width="1188"/>
  <outline>
    <contour>
      <point x="571" y="-23" type="move"/>
      <point x="521" y="124"/>
      <point x="429" y="202"/>
      <point x="335" y="202" type="curve" smooth="yes"/>
      <point x="263" y="202"/>
      <point x="230" y="159"/>
      <point x="230" y="122" type="curve" smooth="yes"/>
      <point x="230" y="84"/>
      <point x="263" y="43"/>
      <point x="336" y="43" type="curve" smooth="yes"/>
      <point x="503" y="43"/>
      <point x="624" y="205"/>
      <point x="624" y="312" type="curve" smooth="yes"/>
      <point x="624" y="391"/>
      <point x="577" y="439"/>
      <point x="508" y="439" type="curve" smooth="yes"/>
      <point x="440" y="439"/>
      <point x="399" y="394"/>
      <point x="360" y="326" type="curve"/>
      <point x="355" y="326" type="line"/>
      <point x="318" y="393"/>
      <point x="271" y="440"/>
      <point x="199" y="440" type="curve" smooth="yes"/>
      <point x="130" y="440"/>
      <point x="88" y="389"/>
      <point x="88" y="328" type="curve" smooth="yes"/>
      <point x="88" y="304"/>
      <point x="95" y="280"/>
      <point x="111" y="254" type="curve"/>
    </contour>
    <contour>
      <point x="624" y="345" type="move"/>
      <point x="654" y="395"/>
      <point x="693" y="433"/>
      <point x="748" y="433" type="curve" smooth="yes"/>
      <point x="814" y="433"/>
      <point x="838" y="384"/>
      <point x="838" y="332" type="curve" smooth="yes"/>
      <point x="838" y="274"/>
      <point x="876" y="246"/>
      <point x="935" y="246" type="curve" smooth="yes"/>
      <point x="985" y="246"/>
      <point x="1028" y="261"/>
      <point x="1056" y="289" type="curve" smooth="yes"/>
      <point x="1092" y="325"/>
      <point x="1111" y="382"/>
      <point x="1111" y="449" type="curve" smooth="yes"/>
      <point x="1111" y="540"/>
      <point x="1059" y="611"/>
      <point x="989" y="611" type="curve" smooth="yes"/>
      <point x="933" y="611"/>
      <point x="898" y="571"/>
      <point x="898" y="526" type="curve" smooth="yes"/>
      <point x="898" y="480"/>
      <point x="935" y="446"/>
      <point x="983" y="446" type="curve" smooth="yes"/>
      <point x="1029" y="446"/>
      <point x="1064" y="466"/>
      <point x="1101" y="514" type="curve"/>
    </contour>
  </outline>
</glyph>
<glyph name="knPU" format="1">
  <advance width="972"/>
  <outline>
    <contour>
      <point x="411" y="85" type="move"/>
      <point x="482" y="-57"/>
      <point x="559" y="-117"/>
      <point x="669" y="-117" type="curve" smooth="yes"/>
      <point x="799" y="-117"/>
      <point x="882" y="-25"/>
      <point x="882" y="140" type="curve" smooth="yes"/>
      <point x="882" y="244"/>
      <point x="842" y="334"/>
      <point x="773" y="412" type="curve"/>
    </contour>
    <component base="knPA"/>
  </outline>
</glyph>
<glyph name="knRAc2.following" format="1">
  <advance width="347"/>
  <outline>
    <contour>
      <point x="41" y="-524" type="move"/>
      <point x="125" y="-520"/>
      <point x="199" y="-493"/>
      <point x="236" y="-456" type="curve" smooth="yes"/>
      <point x="274" y="-418"/>
      <point x="291" y="-372"/>
      <point x="291" y="-308" type="curve" smooth="yes"/>
      <point x="291" y="-271"/>
      <point x="285" y="-229"/>
      <point x="276" y="-196" type="curve"/>
    </contour>
  </outline>
</glyph>
<glyph name="knRRI" format="1">
  <advance width="767"/>
  <outline>
    <contour>
      <point x="120" y="309" type="move"/>
      <point x="148" y="271"/>
      <point x="182" y="247"/>
      <point x="224" y="247" type="curve" smooth="yes"/>
      <point x="272" y="247"/>
      <point x="312" y="276"/>
      <point x="312" y="322" type="curve" smooth="yes"/>
      <point x="312" y="367"/>
      <point x="279" y="399"/>
      <point x="224" y="399" type="curve" smooth="yes"/>
      <point x="155" y="399"/>
      <point x="94" y="319"/>
      <point x="94" y="207" type="curve" smooth="yes"/>
      <point x="94" y="101"/>
      <point x="156" y="23"/>
      <point x="241" y="23" type="curve" smooth="yes"/>
      <point x="306" y="23"/>
      <point x="346" y="52"/>
      <point x="383" y="115" type="curve"/>
      <point x="388" y="115" type="line"/>
      <point x="425" y="52"/>
      <point x="465" y="23"/>
      <point x="530" y="23" type="curve" smooth="yes"/>
      <point x="615" y="23"/>
      <point x="677" y="101"/>
      <point x="677" y="207" type="curve" smooth="yes"/>
      <point x="677" y="319"/>
      <point x="616" y="399"/>
      <point x="547" y="399" type="curve" smooth="yes"/>
      <point x="492" y="399"/>
      <point x="459" y="367"/>
      <point x="459" y="322" type="curve" smooth="yes"/>
      <point x="459" y="276"/>
      <point x="499" y="247"/>
      <point x="547" y="247" type="curve" smooth="yes"/>
      <point x="589" y="247"/>
      <point x="623" y="271"/>
      <point x="651" y="309" type="curve"/>
    </contour>
    <contour>
      <point x="226" y="247" type="move"/>
      <point x="546" y="247" type="line" smooth="yes"/>
    </contour>
    <contour>
      <point x="202" y="397" type="move"/>
      <point x="272" y="414"/>
      <point x="322" y="483"/>
      <point x="322" y="549" type="curve" smooth="yes"/>
      <point x="322" y="615"/>
      <point x="270" y="684"/>
      <point x="200" y="684" type="curve" smooth="yes"/>
      <point x="144" y="684"/>
      <point x="109" y="647"/>
      <point x="109" y="605" type="curve" smooth="yes"/>
      <point x="109" y="559"/>
      <point x="146" y="528"/>
      <point x="194" y="528" type="curve" smooth="yes"/>
      <point x="240" y="528"/>
      <point x="275" y="544"/>
      <point x="312" y="588" type="curve"/>
    </contour>
  </outline>
</glyph>
<glyph name="knReph" format="1">
  <advance width="496"/>
  <outline>
    <contour>
      <point x="235" y="239" type="move"/>
      <point x="168" y="223"/>
      <point x="134" y="173"/>
      <point x="134" y="116" type="curve" smooth="yes"/>
      <point x="134" y="85"/>
      <point x="146" y="56"/>
      <point x="161" y="33" type="curve"/>
    </contour>
    <contour>
      <point x="307" y="239" type="move"/>
      <point x="245" y="239" type="line" smooth="yes"/>
      <point x="151" y="239"/>
      <point x="100" y="284"/>
      <point x="100" y="338" type="curve" smooth="yes"/>
      <point x="100" y="386"/>
      <point x="135" y="433"/>
      <point x="225" y="433" type="curve" smooth="yes"/>
      <point x="423" y="433" type="line"/>
    </contour>
  </outline>
</glyph>
<glyph name="knSHA.base" format="1">
  <advance width="634"/>
  <outline>
    <contour>
      <point x="89" y="433" type="move"/>
      <point x="438" y="433" type="line" smooth="yes"/>
    </contour>
    <contour>
      <point x="179" y="345" type="move"/>
      <point x="199" y="390"/>
      <point x="234" y="419"/>
      <point x="274" y="419" type="curve" smooth="yes"/>
      <point x="320" y="419"/>
      <point x="362" y="384"/>
      <point x="362" y="331" type="curve" smooth="yes"/>
      <point x="362" y="276"/>
      <point x="329" y="234"/>
      <point x="256" y="226" type="curve" smooth="yes"/>
      <point x="170" y="217"/>
      <point x="142" y="203"/>
      <point x="125" y="186" type="curve" smooth="yes"/>
      <point x="110" y="171"/>
      <point x="102" y="151"/>
      <point x="102" y="126" type="curve" smooth="yes"/>
      <point x="102" y="79"/>
      <point x="145" y="23"/>
      <point x="294" y="23" type="curve" smooth="yes"/>
      <point x="396" y="23"/>
      <point x="464" y="60"/>
      <point x="490" y="86" type="curve" smooth="yes"/>
      <point x="518" y="114"/>
      <point x="538" y="151"/>
      <point x="538" y="197" type="curve" smooth="yes"/>
      <point x="538" y="278"/>
      <point x="482" y="377"/>
      <point x="355" y="433" type="curve"/>
    </contour>
  </outline>
</glyph>
<glyph name="knSSAc2" format="1">
  <advance width="119"/>
  <outline>
    <contour>
      <point x="-12" y="-133" type="move"/>
      <point x="144" y="-356" type="line"/>
    </contour>
    <component base="knPa" xOffset="-304" yOffset="-364"/>
    <component base="knPAc2"/>
  </outline>
</glyph>
<glyph name="knSSAc2.kssa" format="1">
  <advance width="0"/>
  <outline>
    <contour>
      <point x="-97" y="-139" type="move"/>
      <point x="-34" y="-293" type="line"/>
    </contour>
    <contour>
      <point x="-325" y="-187" type="move"/>
      <point x="-285" y="-238"/>
      <point x="-242" y="-261"/>
      <point x="-187" y="-261" type="curve" smooth="yes"/>
      <point x="-123" y="-261"/>
      <point x="-92" y="-223"/>
      <point x="-92" y="-175" type="curve" smooth="yes"/>
      <point x="-92" y="-151"/>
      <point x="-97" y="-131"/>
      <point x="-112" y="-107" type="curve"/>
    </contour>
    <contour>
      <point x="-529" y="-118" type="move"/>
      <point x="-546" y="-140"/>
      <point x="-553" y="-162"/>
      <point x="-553" y="-186" type="curve" smooth="yes"/>
      <point x="-553" y="-230"/>
      <point x="-517" y="-260"/>
      <point x="-464" y="-260" type="curve" smooth="yes"/>
      <point x="-409" y="-260"/>
      <point x="-368" y="-237"/>
      <point x="-328" y="-187" type="curve"/>
    </contour>
  </outline>
</glyph>
<glyph name="knTHAc2" format="1">
  <advance width="0"/>
  <outline>
    <contour>
      <point x="-77" y="-429" type="move"/>
      <point x="-77" y="-495" type="line"/>
    </contour>
    <contour>
      <point x="-80" y="-236" type="curve" smooth="yes"/>
      <point x="-74" y="-236"/>
      <point x="-69" y="-231"/>
      <point x="-69" y="-224" type="curve" smooth="yes"/>
      <point x="-69" y="-218"/>
      <point x="-74" y="-213"/>
      <point x="-80" y="-213" type="curve" smooth="yes"/>
      <point x="-86" y="-213"/>
      <point x="-91" y="-218"/>
      <point x="-91" y="-224" type="curve" smooth="yes"/>
      <point x="-91" y="-231"/>
      <point x="-86" y="-236"/>
    </contour>
    <contour>
      <point x="-79" y="-127" type="curve" smooth="yes"/>
      <point x="-194" y="-127"/>
      <point x="-255" y="-219"/>
      <point x="-255" y="-275" type="curve" smooth="yes"/>
      <point x="-255" y="-326"/>
      <point x="-222" y="-355"/>
      <point x="-173" y="-355" type="curve" smooth="yes"/>
      <point x="-137" y="-355"/>
      <point x="-108" y="-340"/>
      <point x="-82" y="-308" type="curve"/>
      <point x="-80" y="-308" type="line"/>
      <point x="-49" y="-338"/>
      <point x="-25" y="-355"/>
      <point x="20" y="-355" type="curve" smooth="yes"/>
      <point x="69" y="-355"/>
      <point x="108" y="-324"/>
      <point x="108" y="-275" type="curve" smooth="yes"/>
      <point x="108" y="-219"/>
      <point x="44" y="-127"/>
    </contour>
  </outline>
</glyph>
<glyph name="knTHI" format="1">
  <advance width="729"/>
  <outline>
    <contour>
      <point x="370" y="-93" type="move"/>
      <point x="370" y="-196" type="line"/>
    </contour>
    <contour>
      <point x="370" y="296" type="curve" smooth="yes"/>
      <point x="355" y="296"/>
      <point x="342" y="281"/>
      <point x="342" y="269" type="curve" smooth="yes"/>
      <point x="342" y="253"/>
      <point x="355" y="240"/>
      <point x="370" y="240" type="curve" smooth="yes"/>
      <point x="387" y="240"/>
      <point x="399" y="253"/>
      <point x="399" y="268" type="curve" smooth="yes"/>
      <point x="399" y="281"/>
      <point x="387" y="296"/>
    </contour>
    <component base="knDI"/>
  </outline>
</glyph>
<glyph name="knTTHAc2" format="1">
  <advance width="0"/>
  <outline>
    <contour>
      <point x="-78" y="-113" type="curve" smooth="yes"/>
      <point x="-171" y="-113"/>
      <point x="-214" y="-186"/>
      <point x="-214" y="-242" type="curve" smooth="yes"/>
      <point x="-214" y="-301"/>
      <point x="-171" y="-366"/>
      <point x="-76" y="-366" type="curve" smooth="yes"/>
      <point x="14" y="-366"/>
      <point x="59" y="-300"/>
      <point x="59" y="-242" type="curve" smooth="yes"/>
      <point x="59" y="-185"/>
      <point x="15" y="-113"/>
    </contour>
    <contour>
      <point x="-78" y="-249" type="curve" smooth="yes"/>
      <point x="-73" y="-249"/>
      <point x="-68" y="-245"/>
      <point x="-68" y="-239" type="curve" smooth="yes"/>
      <point x="-68" y="-233"/>
      <point x="-73" y="-229"/>
      <point x="-78" y="-229" type="curve" smooth="yes"/>
      <point x="-84" y="-229"/>
      <point x="-88" y="-233"/>
      <point x="-88" y="-239" type="curve" smooth="yes"/>
      <point x="-88" y="-245"/>
      <point x="-84" y="-249"/>
    </contour>
  </outline>
</glyph>
<glyph name="knVAc2" format="1">
  <advance width="0"/>
  <outline>
    <contour>
      <point x="-174" y="-149" type="move"/>
      <point x="-36" y="-149" type="line" smooth="yes"/>
      <point x="27" y="-149"/>
      <point x="70" y="-126"/>
      <point x="91" y="-96" type="curve"/>
    </contour>
    <contour>
      <point x="-83" y="-305" type="move"/>
      <point x="-46" y="-337"/>
      <point x="-8" y="-354"/>
      <point x="32" y="-354" type="curve" smooth="yes"/>
      <point x="82" y="-354"/>
      <point x="111" y="-328"/>
      <point x="111" y="-286" type="curve" smooth="yes"/>
      <point x="111" y="-247"/>
      <point x="84" y="-191"/>
      <point x="-43" y="-149" type="curve"/>
    </contour>
    <contour>
      <point x="-231" y="-245" type="move"/>
      <point x="-255" y="-258"/>
      <point x="-269" y="-280"/>
      <point x="-269" y="-302" type="curve" smooth="yes"/>
      <point x="-269" y="-331"/>
      <point x="-247" y="-356"/>
      <point x="-197" y="-356" type="curve" smooth="yes"/>
      <point x="-156" y="-356"/>
      <point x="-115" y="-336"/>
      <point x="-86" y="-305" type="curve"/>
    </contour>
  </outline>
</glyph>
<glyph name="knVU" format="1">
  <advance width="948"/>
  <outline>
    <contour>
      <point x="387" y="85" type="move"/>
      <point x="458" y="-57"/>
      <point x="535" y="-117"/>
      <point x="645" y="-117" type="curve" smooth="yes"/>
      <point x="775" y="-117"/>
      <point x="858" y="-25"/>
      <point x="858" y="140" type="curve" smooth="yes"/>
      <point x="858" y="244"/>
      <point x="818" y="334"/>
      <point x="749" y="412" type="curve"/>
    </contour>
    <component base="knVA"/>
  </outline>
</glyph>
<glyph name="knYI" format="1">
  <advance width="1225"/>
  <outline>
    <contour>
      <point x="188" y="433"/>
      <point x="95" y="328"/>
      <point x="95" y="223" type="curve" smooth="yes"/>
      <point x="95" y="106"/>
      <point x="175" y="19"/>
      <point x="306" y="19" type="curve" smooth="yes"/>
      <point x="435" y="19"/>
      <point x="517" y="108"/>
      <point x="517" y="223" type="curve" smooth="yes"/>
      <point x="517" y="326"/>
      <point x="426" y="433"/>
      <point x="306" y="433" type="curve" smooth="yes"/>
    </contour>
    <contour>
      <point x="504" y="141" type="move"/>
      <point x="563" y="58"/>
      <point x="624" y="23"/>
      <point x="685" y="23" type="curve" smooth="yes"/>
      <point x="777" y="23"/>
      <point x="834" y="88"/>
      <point x="834" y="224" type="curve" smooth="yes"/>
      <point x="834" y="338"/>
      <point x="785" y="479"/>
      <point x="718" y="546" type="curve" smooth="yes"/>
      <point x="669" y="595"/>
      <point x="633" y="611"/>
      <point x="590" y="611" type="curve" smooth="yes"/>
      <point x="530" y="611"/>
      <point x="500" y="565"/>
      <point x="500" y="527" type="curve" smooth="yes"/>
      <point x="500" y="486"/>
      <point x="531" y="446"/>
      <point x="588" y="446" type="curve" smooth="yes"/>
      <point x="640" y="446"/>
      <point x="682" y="477"/>
      <point x="721" y="540" type="curve"/>
    </contour>
    <contour>
      <point x="823" y="131" type="move"/>
      <point x="883" y="51"/>
      <point x="935" y="23"/>
      <point x="996" y="23" type="curve" smooth="yes"/>
      <point x="1088" y="23"/>
      <point x="1135" y="83"/>
      <point x="1135" y="169" type="curve" smooth="yes"/>
      <point x="1135" y="250"/>
      <point x="1089" y="346"/>
      <point x="1029" y="412" type="curve"/>
    </contour>
  </outline>
</glyph>
<glyph name="onesuperior" format="1">
  <advance width="232"/>
  <outline>
    <contour>
      <point x="139" y="515" type="move"/>
      <point x="139" y="257" type="line"/>
    </contour>
    <contour>
      <point x="139" y="518" type="move"/>
      <point x="57" y="474" type="line"/>
    </contour>
  </outline>
</glyph>
<glyph name="ringcmb.cap" format="1">
  <advance width="0"/>
  <outline>
    <contour>
      <point x="82" y="666" type="curve" smooth="yes"/>
      <point x="82" y="707"/>
      <point x="49" y="744"/>
      <point x="-5" y="744" type="curve" smooth="yes"/>
      <point x="-57" y="744"/>
      <point x="-89" y="704"/>
      <point x="-89" y="666" type="curve" smooth="yes"/>
      <point x="-89" y="628"/>
      <point x="-57" y="588"/>
      <point x="-5" y="588" type="curve" smooth="yes"/>
      <point x="49" y="588"/>
      <point x="82" y="625"/>
    </contour>
  </outline>
</glyph>
<glyph name="threesuperior" format="1">
  <advance width="382"/>
  <outline>
    <contour>
      <point x="108" y="508" type="move"/>
      <point x="280" y="508" type="line"/>
    </contour>
    <contour>
      <point x="98" y="263" type="move"/>
      <point x="122" y="254"/>
      <point x="153" y="247"/>
      <point x="189" y="247" type="curve" smooth="yes"/>
      <point x="256" y="247"/>
      <point x="289" y="278"/>
      <point x="289" y="319" type="curve" smooth="yes"/>
      <point x="289" y="361"/>
      <point x="254" y="389"/>
      <point x="196" y="389" type="curve" smooth="yes"/>
      <point x="168" y="389"/>
      <point x="146" y="385"/>
      <point x="134" y="381" type="curve"/>
    </contour>
    <contour>
      <point x="275" y="504" type="move"/>
      <point x="136" y="383" type="line" smooth="yes"/>
    </contour>
  </outline>
</glyph>
<glyph name="uni2113" format="1">
  <advance width="362"/>
  <outline>
    <contour>
      <point x="53" y="116" type="move"/>
      <point x="139" y="147"/>
      <point x="187" y="174"/>
      <point x="221" y="208" type="curve" smooth="yes"/>
      <point x="251" y="238"/>
      <point x="282" y="310"/>
      <point x="282" y="377" type="curve" smooth="yes"/>
      <point x="282" y="454"/>
      <point x="260" y="534"/>
      <point x="195" y="534" type="curve" smooth="yes"/>
      <point x="127" y="534"/>
      <point x="112" y="469"/>
      <point x="112" y="391" type="curve" smooth="yes"/>
      <point x="112" y="94" type="line" smooth="yes"/>
      <point x="112" y="46"/>
      <point x="145" y="13"/>
      <point x="195" y="13" type="curve" smooth="yes"/>
      <point x="225" y="13"/>
      <point x="256" y="22"/>
      <point x="285" y="40" type="curve"/>
    </contour>
  </outline>
</glyph>
<glyph name="uni2126" format="1">
  <advance width="630"/>
  <outline>
    <contour>
      <point x="414" y="23" type="move"/>
      <point x="558" y="23" type="line"/>
    </contour>
    <contour>
      <point x="87" y="23" type="move"/>
      <point x="232" y="23" type="line"/>
    </contour>
    <contour>
      <point x="405" y="23" type="move"/>
      <point x="472" y="96"/>
      <point x="539" y="189"/>
      <point x="539" y="298" type="curve" smooth="yes"/>
      <point x="539" y="420"/>
      <point x="446" y="517"/>
      <point x="317" y="517" type="curve" smooth="yes"/>
      <point x="176" y="517"/>
      <point x="91" y="420"/>
      <point x="91" y="298" type="curve" smooth="yes"/>
      <point x="91" y="185"/>
      <point x="166" y="95"/>
      <point x="240" y="23" type="curve"/>
    </contour>
  </outline>
</glyph>
